<?xml version="1.0" encoding="UTF-8"?>
<!DOCTYPE svg PUBLIC "-//W3C//DTD SVG 1.1//EN" "http://www.w3.org/Graphics/SVG/1.1/DTD/svg11.dtd">
<svg xmlns="http://www.w3.org/2000/svg" version="1.1" width="271px" height="180px" style="shape-rendering:geometricPrecision; text-rendering:geometricPrecision; image-rendering:optimizeQuality; fill-rule:evenodd; clip-rule:evenodd" xmlns:xlink="http://www.w3.org/1999/xlink">
<g><path style="opacity:1" fill="#f6f6f5" d="M 126.5,-0.5 C 132.5,-0.5 138.5,-0.5 144.5,-0.5C 144.833,10.1667 145.167,20.8333 145.5,31.5C 145.829,37.2055 145.495,42.8722 144.5,48.5C 143.712,49.7701 142.712,50.7701 141.5,51.5C 136.915,50.2493 132.248,49.2493 127.5,48.5C 127.777,45.5525 127.444,42.7191 126.5,40C 116.172,39.5002 105.839,39.3335 95.5,39.5C 95.6567,38.1266 95.49,36.7932 95,35.5C 90.2585,39.5358 86.7585,38.5358 84.5,32.5C 78.3367,30.0408 72.1701,30.0408 66,32.5C 63.0699,30.7449 59.9033,29.5783 56.5,29C 55.2528,27.5064 55.2528,26.0064 56.5,24.5C 58.64,23.5267 60.3067,22.0267 61.5,20C 63.4727,19.5045 65.4727,19.3379 67.5,19.5C 66.8379,15.5341 66.5045,11.5341 66.5,7.5C 68.288,7.78522 69.9547,7.45189 71.5,6.5C 68.8929,5.68156 66.2263,5.18156 63.5,5C 68.8076,4.16972 74.1409,3.66972 79.5,3.5C 79.5,4.83333 79.5,6.16667 79.5,7.5C 89.8387,7.66649 100.172,7.49983 110.5,7C 111.337,5.98873 111.67,4.82207 111.5,3.5C 116.511,3.66593 121.511,3.49926 126.5,3C 127.171,2.01381 127.171,0.847141 126.5,-0.5 Z"/></g>
<g><path style="opacity:1" fill="#f4f3ef" d="M 21.5,-0.5 C 56.5,-0.5 91.5,-0.5 126.5,-0.5C 127.171,0.847141 127.171,2.01381 126.5,3C 121.511,3.49926 116.511,3.66593 111.5,3.5C 111.67,4.82207 111.337,5.98873 110.5,7C 100.172,7.49983 89.8387,7.66649 79.5,7.5C 79.5,6.16667 79.5,4.83333 79.5,3.5C 74.1409,3.66972 68.8076,4.16972 63.5,5C 66.2263,5.18156 68.8929,5.68156 71.5,6.5C 69.9547,7.45189 68.288,7.78522 66.5,7.5C 66.5045,11.5341 66.8379,15.5341 67.5,19.5C 65.4727,19.3379 63.4727,19.5045 61.5,20C 60.3067,22.0267 58.64,23.5267 56.5,24.5C 55.2528,26.0064 55.2528,27.5064 56.5,29C 59.9033,29.5783 63.0699,30.7449 66,32.5C 72.1701,30.0408 78.3367,30.0408 84.5,32.5C 86.7585,38.5358 90.2585,39.5358 95,35.5C 95.49,36.7932 95.6567,38.1266 95.5,39.5C 105.839,39.3335 116.172,39.5002 126.5,40C 127.444,42.7191 127.777,45.5525 127.5,48.5C 132.248,49.2493 136.915,50.2493 141.5,51.5C 138.342,52.4469 135.009,52.4469 131.5,51.5C 127.638,48.9928 123.305,47.6595 118.5,47.5C 116.393,46.5318 114.059,46.1984 111.5,46.5C 111.67,45.1779 111.337,44.0113 110.5,43C 103.552,42.41 96.2182,41.7433 88.5,41C 86.6805,37.69 84.0139,35.3567 80.5,34C 76.1051,33.7371 71.7718,34.2371 67.5,35.5C 60.2022,33.0071 52.7022,32.3405 45,33.5C 44.5,33.1667 44,32.8333 43.5,32.5C 44.325,31.6143 45.325,31.281 46.5,31.5C 46.6427,29.7376 46.3094,28.0709 45.5,26.5C 42.8333,25.8333 40.1667,25.1667 37.5,24.5C 35.9951,23.1585 35.3285,21.4918 35.5,19.5C 34.1779,19.67 33.0113,19.3366 32,18.5C 31.2432,20.3146 30.4098,21.9812 29.5,23.5C 29.1667,23.5 28.8333,23.5 28.5,23.5C 27.8333,21.5 27.1667,19.5 26.5,17.5C 24.2488,11.6636 22.5821,5.66365 21.5,-0.5 Z"/></g>
<g><path style="opacity:1" fill="#7392a3" d="M 164.5,-0.5 C 175.167,-0.5 185.833,-0.5 196.5,-0.5C 196.833,2.16667 197.167,4.83333 197.5,7.5C 186.799,4.83616 176.132,4.83616 165.5,7.5C 165.425,4.79384 165.092,2.12717 164.5,-0.5 Z"/></g>
<g><path style="opacity:1" fill="#6d605c" d="M 198.5,-0.5 C 206.833,-0.5 215.167,-0.5 223.5,-0.5C 223.08,1.09362 222.414,2.59362 221.5,4C 224.769,10.0691 226.102,16.5691 225.5,23.5C 224.953,20.4247 223.953,17.4247 222.5,14.5C 221.335,15.4911 220.168,16.4911 219,17.5C 215.314,16.061 211.481,15.061 207.5,14.5C 208.167,12.5 208.833,10.5 209.5,8.5C 206.9,5.51245 204.9,5.84578 203.5,9.5C 205.011,11.8375 204.677,12.5042 202.5,11.5C 202.167,12 201.833,12.5 201.5,13C 202.608,14.6773 202.608,16.1773 201.5,17.5C 200.793,11.445 199.793,5.44505 198.5,-0.5 Z"/></g>
<g><path style="opacity:1" fill="#828183" d="M 153.5,-0.5 C 157.167,-0.5 160.833,-0.5 164.5,-0.5C 165.092,2.12717 165.425,4.79384 165.5,7.5C 165.672,8.49162 165.338,9.15829 164.5,9.5C 156.119,11.4648 152.452,8.13151 153.5,-0.5 Z"/></g>
<g><path style="opacity:1" fill="#2c2627" d="M 223.5,-0.5 C 226.167,-0.5 228.833,-0.5 231.5,-0.5C 231.666,4.51108 231.499,9.51108 231,14.5C 227.8,16.7471 227.8,19.0804 231,21.5C 231.631,25.8574 231.465,30.1907 230.5,34.5C 230.511,38.6068 232.011,41.9401 235,44.5C 238.941,43.7533 243.107,43.5866 247.5,44C 249.618,44.2602 251.284,45.2602 252.5,47C 244.153,48.1369 235.819,48.9702 227.5,49.5C 222.461,49.5489 222.295,48.8823 227,47.5C 228.471,41.5692 228.804,35.5692 228,29.5C 227.998,26.9488 227.164,24.9488 225.5,23.5C 226.102,16.5691 224.769,10.0691 221.5,4C 222.414,2.59362 223.08,1.09362 223.5,-0.5 Z"/></g>
<g><path style="opacity:1" fill="#adb6b6" d="M -0.5,-0.5 C 6.83333,-0.5 14.1667,-0.5 21.5,-0.5C 22.5821,5.66365 24.2488,11.6636 26.5,17.5C 25.6977,18.8847 25.0311,18.718 24.5,17C 22.7015,13.5882 21.3682,10.0882 20.5,6.5C 14.9643,6.53758 10.631,8.87091 7.5,13.5C 5.057,15.0553 2.39034,15.722 -0.5,15.5C -0.5,10.1667 -0.5,4.83333 -0.5,-0.5 Z"/></g>
<g><path style="opacity:1" fill="#b0a7a1" d="M 146.5,-0.5 C 148.833,-0.5 151.167,-0.5 153.5,-0.5C 152.452,8.13151 156.119,11.4648 164.5,9.5C 164.334,18.5062 164.5,27.5062 165,36.5C 165.87,37.1079 166.37,37.9412 166.5,39C 166.382,42.3255 166.049,45.8255 165.5,49.5C 163.5,49.5 161.5,49.5 159.5,49.5C 160.074,43.5164 160.407,37.5164 160.5,31.5C 157.728,30.6285 155.062,30.6285 152.5,31.5C 151.5,31.5 150.5,31.5 149.5,31.5C 149.5,26.1667 149.5,20.8333 149.5,15.5C 148.5,15.5 147.5,15.5 146.5,15.5C 146.5,10.1667 146.5,4.83333 146.5,-0.5 Z"/></g>
<g><path style="opacity:1" fill="#cecbbf" d="M 26.5,17.5 C 27.1667,19.5 27.8333,21.5 28.5,23.5C 28.6602,25.1992 28.4935,26.8659 28,28.5C 27.2432,26.6854 26.4098,25.0188 25.5,23.5C 25.0131,16.9854 22.0131,15.3187 16.5,18.5C 15.5713,19.6888 15.238,21.0222 15.5,22.5C 13.4176,22.472 11.5843,23.1387 10,24.5C 9.66667,23.8333 9.33333,23.1667 9,22.5C 6.17025,25.1885 3.00358,27.1885 -0.5,28.5C -0.5,24.1667 -0.5,19.8333 -0.5,15.5C 2.39034,15.722 5.057,15.0553 7.5,13.5C 10.631,8.87091 14.9643,6.53758 20.5,6.5C 21.3682,10.0882 22.7015,13.5882 24.5,17C 25.0311,18.718 25.6977,18.8847 26.5,17.5 Z"/></g>
<g><path style="opacity:1" fill="#837169" d="M 225.5,23.5 C 225.666,27.8461 225.499,32.1794 225,36.5C 224.768,37.7375 224.268,38.7375 223.5,39.5C 224.532,34.3406 224.532,29.3406 223.5,24.5C 223.313,22.4357 222.813,20.4357 222,18.5C 220.101,21.8758 219.268,25.5425 219.5,29.5C 217.821,29.2852 216.821,29.9519 216.5,31.5C 210.721,31.4088 205.054,32.0755 199.5,33.5C 198.757,28.0275 199.424,22.6942 201.5,17.5C 202.608,16.1773 202.608,14.6773 201.5,13C 201.833,12.5 202.167,12 202.5,11.5C 204.677,12.5042 205.011,11.8375 203.5,9.5C 204.9,5.84578 206.9,5.51245 209.5,8.5C 208.833,10.5 208.167,12.5 207.5,14.5C 211.481,15.061 215.314,16.061 219,17.5C 220.168,16.4911 221.335,15.4911 222.5,14.5C 223.953,17.4247 224.953,20.4247 225.5,23.5 Z"/></g>
<g><path style="opacity:1" fill="#cec7be" d="M 144.5,-0.5 C 145.167,-0.5 145.833,-0.5 146.5,-0.5C 146.5,4.83333 146.5,10.1667 146.5,15.5C 147.5,15.5 148.5,15.5 149.5,15.5C 149.5,20.8333 149.5,26.1667 149.5,31.5C 148.5,31.5 147.5,31.5 146.5,31.5C 146.167,31.5 145.833,31.5 145.5,31.5C 145.167,20.8333 144.833,10.1667 144.5,-0.5 Z"/></g>
<g><path style="opacity:1" fill="#e9ded0" d="M 25.5,23.5 C 24.9856,25.6984 23.9856,27.6984 22.5,29.5C 22.8328,32.345 23.8328,34.845 25.5,37C 24.2341,37.3095 23.0674,37.8095 22,38.5C 21.6667,37.8333 21.3333,37.1667 21,36.5C 20.3333,37.8333 19.6667,37.8333 19,36.5C 15.9257,38.6092 12.259,40.9425 8,43.5C 6.35905,39.6766 3.52572,37.6766 -0.5,37.5C -0.5,34.5 -0.5,31.5 -0.5,28.5C 3.00358,27.1885 6.17025,25.1885 9,22.5C 9.33333,23.1667 9.66667,23.8333 10,24.5C 11.5843,23.1387 13.4176,22.472 15.5,22.5C 15.238,21.0222 15.5713,19.6888 16.5,18.5C 22.0131,15.3187 25.0131,16.9854 25.5,23.5 Z"/></g>
<g><path style="opacity:1" fill="#211f21" d="M 231.5,-0.5 C 244.5,-0.5 257.5,-0.5 270.5,-0.5C 270.5,44.1667 270.5,88.8333 270.5,133.5C 269.778,133.918 269.278,134.584 269,135.5C 268,134.167 267,134.167 266,135.5C 265.667,134.5 265.333,133.5 265,132.5C 263.647,133.704 261.981,134.371 260,134.5C 252.911,133.029 245.744,132.195 238.5,132C 245.833,131.667 253.167,131.333 260.5,131C 250.506,130.5 240.506,130.334 230.5,130.5C 225.305,130.821 220.305,130.487 215.5,129.5C 232.675,129.83 249.675,129.497 266.5,128.5C 267.498,102.339 267.831,76.0053 267.5,49.5C 254.167,49.5 240.833,49.5 227.5,49.5C 235.819,48.9702 244.153,48.1369 252.5,47C 251.284,45.2602 249.618,44.2602 247.5,44C 243.107,43.5866 238.941,43.7533 235,44.5C 232.011,41.9401 230.511,38.6068 230.5,34.5C 231.465,30.1907 231.631,25.8574 231,21.5C 227.8,19.0804 227.8,16.7471 231,14.5C 231.499,9.51108 231.666,4.51108 231.5,-0.5 Z"/></g>
<g><path style="opacity:1" fill="#a2acb3" d="M 197.5,7.5 C 197.827,12.2137 197.493,16.8804 196.5,21.5C 195.85,23.1836 194.85,24.5169 193.5,25.5C 193.607,23.6214 193.107,23.2881 192,24.5C 191.667,26.8333 191.333,29.1667 191,31.5C 188.343,32.5729 186.177,34.2395 184.5,36.5C 178.447,37.2606 172.78,39.094 167.5,42C 169.774,43.7515 171.774,45.7515 173.5,48C 172.263,48.2321 171.263,48.7321 170.5,49.5C 168.833,49.5 167.167,49.5 165.5,49.5C 166.049,45.8255 166.382,42.3255 166.5,39C 166.37,37.9412 165.87,37.1079 165,36.5C 164.5,27.5062 164.334,18.5062 164.5,9.5C 165.338,9.15829 165.672,8.49162 165.5,7.5C 176.132,4.83616 186.799,4.83616 197.5,7.5 Z"/></g>
<g><path style="opacity:1" fill="#a9c0ca" d="M 166.5,9.5 C 174.84,9.3336 183.173,9.50027 191.5,10C 194.611,13.8886 193.944,16.8886 189.5,19C 183.153,19.6428 176.82,19.9761 170.5,20C 166.101,17.6321 164.767,14.1321 166.5,9.5 Z"/></g>
<g><path style="opacity:1" fill="#888281" d="M 196.5,-0.5 C 197.167,-0.5 197.833,-0.5 198.5,-0.5C 199.793,5.44505 200.793,11.445 201.5,17.5C 199.424,22.6942 198.757,28.0275 199.5,33.5C 198.449,35.587 198.449,37.7536 199.5,40C 199.121,42.0924 198.454,44.0924 197.5,46C 198.544,47.1739 199.544,48.3406 200.5,49.5C 197.5,49.5 194.5,49.5 191.5,49.5C 192.117,47.3897 191.783,45.2231 190.5,43C 186.505,43.5437 182.672,44.0437 179,44.5C 178.51,43.2068 178.343,41.8734 178.5,40.5C 182.767,40.2481 186.934,39.5814 191,38.5C 191.333,38.8333 191.667,39.1667 192,39.5C 194.405,34.9936 194.905,30.327 193.5,25.5C 194.85,24.5169 195.85,23.1836 196.5,21.5C 197.493,16.8804 197.827,12.2137 197.5,7.5C 197.167,4.83333 196.833,2.16667 196.5,-0.5 Z"/></g>
<g><path style="opacity:1" fill="#f8f1e6" d="M 118.5,47.5 C 109.494,47.6664 100.494,47.4998 91.5,47C 89.9194,46.2935 88.4194,45.4601 87,44.5C 84.7987,41.8793 82.9653,39.0459 81.5,36C 72.2854,36.2686 63.1187,37.1019 54,38.5C 46.2504,39.0521 39.0838,37.3854 32.5,33.5C 31.4847,30.1455 30.4847,26.8122 29.5,23.5C 30.4098,21.9812 31.2432,20.3146 32,18.5C 33.0113,19.3366 34.1779,19.67 35.5,19.5C 35.3285,21.4918 35.9951,23.1585 37.5,24.5C 40.1667,25.1667 42.8333,25.8333 45.5,26.5C 46.3094,28.0709 46.6427,29.7376 46.5,31.5C 45.325,31.281 44.325,31.6143 43.5,32.5C 44,32.8333 44.5,33.1667 45,33.5C 52.7022,32.3405 60.2022,33.0071 67.5,35.5C 71.7718,34.2371 76.1051,33.7371 80.5,34C 84.0139,35.3567 86.6805,37.69 88.5,41C 96.2182,41.7433 103.552,42.41 110.5,43C 111.337,44.0113 111.67,45.1779 111.5,46.5C 114.059,46.1984 116.393,46.5318 118.5,47.5 Z"/></g>
<g><path style="opacity:1" fill="#efceaf" d="M 146.5,31.5 C 147.5,31.5 148.5,31.5 149.5,31.5C 150.5,31.5 151.5,31.5 152.5,31.5C 152.764,37.102 151.764,42.4354 149.5,47.5C 148.167,47.5 147.5,46.8333 147.5,45.5C 147.563,40.7971 147.229,36.1304 146.5,31.5 Z"/></g>
<g><path style="opacity:1" fill="#bea89c" d="M 223.5,24.5 C 222.361,31.1006 221.528,37.7672 221,44.5C 218.909,45.4996 217.243,44.8329 216,42.5C 215.55,38.8125 215.717,35.1458 216.5,31.5C 216.821,29.9519 217.821,29.2852 219.5,29.5C 219.268,25.5425 220.101,21.8758 222,18.5C 222.813,20.4357 223.313,22.4357 223.5,24.5 Z"/></g>
<g><path style="opacity:1" fill="#c7ae9d" d="M 159.5,49.5 C 155.671,50.069 152.337,49.4023 149.5,47.5C 151.764,42.4354 152.764,37.102 152.5,31.5C 155.062,30.6285 157.728,30.6285 160.5,31.5C 160.407,37.5164 160.074,43.5164 159.5,49.5 Z"/></g>
<g><path style="opacity:1" fill="#f3e1ce" d="M 25.5,23.5 C 26.4098,25.0188 27.2432,26.6854 28,28.5C 28.4935,26.8659 28.6602,25.1992 28.5,23.5C 28.8333,23.5 29.1667,23.5 29.5,23.5C 30.4847,26.8122 31.4847,30.1455 32.5,33.5C 39.0838,37.3854 46.2504,39.0521 54,38.5C 63.1187,37.1019 72.2854,36.2686 81.5,36C 82.9653,39.0459 84.7987,41.8793 87,44.5C 88.4194,45.4601 89.9194,46.2935 91.5,47C 100.494,47.4998 109.494,47.6664 118.5,47.5C 123.305,47.6595 127.638,48.9928 131.5,51.5C 135.009,52.4469 138.342,52.4469 141.5,51.5C 142.712,50.7701 143.712,49.7701 144.5,48.5C 145.495,42.8722 145.829,37.2055 145.5,31.5C 145.833,31.5 146.167,31.5 146.5,31.5C 147.229,36.1304 147.563,40.7971 147.5,45.5C 146.467,48.986 145.633,52.6526 145,56.5C 142.621,61.5053 139.621,61.8387 136,57.5C 127.479,58.9585 118.979,60.6251 110.5,62.5C 110.5,61.5 110.5,60.5 110.5,59.5C 114.818,59.6757 116.818,57.8424 116.5,54C 106.549,52.8016 96.5494,52.1349 86.5,52C 85.6919,51.6924 85.0253,51.1924 84.5,50.5C 88.4436,48.5959 88.1103,47.5959 83.5,47.5C 82.4923,45.6614 80.9923,44.3281 79,43.5C 77.872,41.6547 77.372,39.6547 77.5,37.5C 76.448,37.3505 75.448,37.5172 74.5,38C 72.8248,39.7094 71.1581,41.3761 69.5,43C 63.3231,43.3817 57.1565,43.8817 51,44.5C 44.7108,44.0635 38.5441,43.0635 32.5,41.5C 32.4885,45.3129 34.1552,47.9796 37.5,49.5C 39.0764,52.6548 40.0764,55.9882 40.5,59.5C 40.5,60.8333 40.5,62.1667 40.5,63.5C 38.5,63.5 36.5,63.5 34.5,63.5C 35.0682,58.1872 34.2348,53.1872 32,48.5C 31.6667,45.5 31.3333,42.5 31,39.5C 30.3333,38.8333 29.6667,38.1667 29,37.5C 28.2904,38.9733 27.1238,39.6399 25.5,39.5C 25.5,40.8333 25.5,42.1667 25.5,43.5C 24.0222,43.238 22.6888,43.5713 21.5,44.5C 22.2458,45.7362 22.5792,47.0695 22.5,48.5C 17.496,48.8893 12.496,49.3893 7.5,50C 6.67529,51.6883 5.67529,51.8549 4.5,50.5C 3.51998,53.0865 3.18665,55.7531 3.5,58.5C 2.29764,59.4054 0.964302,59.4054 -0.5,58.5C -0.5,51.5 -0.5,44.5 -0.5,37.5C 3.52572,37.6766 6.35905,39.6766 8,43.5C 12.259,40.9425 15.9257,38.6092 19,36.5C 19.6667,37.8333 20.3333,37.8333 21,36.5C 21.3333,37.1667 21.6667,37.8333 22,38.5C 23.0674,37.8095 24.2341,37.3095 25.5,37C 23.8328,34.845 22.8328,32.345 22.5,29.5C 23.9856,27.6984 24.9856,25.6984 25.5,23.5 Z"/></g>
<g><path style="opacity:1" fill="#9d857a" d="M 223.5,24.5 C 224.532,29.3406 224.532,34.3406 223.5,39.5C 223.453,42.9686 222.787,46.302 221.5,49.5C 214.5,49.5 207.5,49.5 200.5,49.5C 199.544,48.3406 198.544,47.1739 197.5,46C 198.454,44.0924 199.121,42.0924 199.5,40C 198.449,37.7536 198.449,35.587 199.5,33.5C 205.054,32.0755 210.721,31.4088 216.5,31.5C 215.717,35.1458 215.55,38.8125 216,42.5C 217.243,44.8329 218.909,45.4996 221,44.5C 221.528,37.7672 222.361,31.1006 223.5,24.5 Z"/></g>
<g><path style="opacity:1" fill="#d2b9a3" d="M 83.5,47.5 C 83.1667,47.5 82.8333,47.5 82.5,47.5C 79.3433,46.5371 76.51,44.8704 74,42.5C 72.6293,43.5812 71.1293,44.4145 69.5,45C 59.5006,46.5233 49.5006,46.6899 39.5,45.5C 38.791,44.596 37.791,44.2627 36.5,44.5C 36.2627,45.791 36.596,46.791 37.5,47.5C 37.5,48.1667 37.5,48.8333 37.5,49.5C 34.1552,47.9796 32.4885,45.3129 32.5,41.5C 38.5441,43.0635 44.7108,44.0635 51,44.5C 57.1565,43.8817 63.3231,43.3817 69.5,43C 71.1581,41.3761 72.8248,39.7094 74.5,38C 75.448,37.5172 76.448,37.3505 77.5,37.5C 77.372,39.6547 77.872,41.6547 79,43.5C 80.9923,44.3281 82.4923,45.6614 83.5,47.5 Z"/></g>
<g><path style="opacity:1" fill="#a7907e" d="M 82.5,47.5 C 82.5,48.1667 82.5,48.8333 82.5,49.5C 81.8333,49.5 81.1667,49.5 80.5,49.5C 68.0185,48.2123 55.3518,47.379 42.5,47C 41.2625,46.7679 40.2625,46.2679 39.5,45.5C 49.5006,46.6899 59.5006,46.5233 69.5,45C 71.1293,44.4145 72.6293,43.5812 74,42.5C 76.51,44.8704 79.3433,46.5371 82.5,47.5 Z"/></g>
<g><path style="opacity:1" fill="#87756b" d="M 39.5,45.5 C 40.2625,46.2679 41.2625,46.7679 42.5,47C 55.3518,47.379 68.0185,48.2123 80.5,49.5C 65.9228,50.1232 51.5894,49.4565 37.5,47.5C 36.596,46.791 36.2627,45.791 36.5,44.5C 37.791,44.2627 38.791,44.596 39.5,45.5 Z"/></g>
<g><path style="opacity:1" fill="#919097" d="M 193.5,25.5 C 194.905,30.327 194.405,34.9936 192,39.5C 191.667,39.1667 191.333,38.8333 191,38.5C 186.934,39.5814 182.767,40.2481 178.5,40.5C 178.343,41.8734 178.51,43.2068 179,44.5C 182.672,44.0437 186.505,43.5437 190.5,43C 191.783,45.2231 192.117,47.3897 191.5,49.5C 184.5,49.5 177.5,49.5 170.5,49.5C 171.263,48.7321 172.263,48.2321 173.5,48C 171.774,45.7515 169.774,43.7515 167.5,42C 172.78,39.094 178.447,37.2606 184.5,36.5C 186.177,34.2395 188.343,32.5729 191,31.5C 191.333,29.1667 191.667,26.8333 192,24.5C 193.107,23.2881 193.607,23.6214 193.5,25.5 Z"/></g>
<g><path style="opacity:1" fill="#c7bcb8" d="M 191.5,49.5 C 194.5,49.5 197.5,49.5 200.5,49.5C 207.5,49.5 214.5,49.5 221.5,49.5C 221.5,49.8333 221.5,50.1667 221.5,50.5C 221.915,56.2866 220.915,61.7866 218.5,67C 213.665,68.8671 208.665,70.0338 203.5,70.5C 199.776,70.4077 196.442,69.4077 193.5,67.5C 196.187,67.6641 198.854,67.4974 201.5,67C 201.643,64.9588 201.309,62.7921 200.5,60.5C 203.948,58.7169 203.948,56.5502 200.5,54C 200.833,53 201.167,52 201.5,51C 197.975,50.8213 194.641,50.3213 191.5,49.5 Z"/></g>
<g><path style="opacity:1" fill="#c9c8cc" d="M 159.5,49.5 C 161.5,49.5 163.5,49.5 165.5,49.5C 167.167,49.5 168.833,49.5 170.5,49.5C 177.5,49.5 184.5,49.5 191.5,49.5C 194.641,50.3213 197.975,50.8213 201.5,51C 201.167,52 200.833,53 200.5,54C 203.948,56.5502 203.948,58.7169 200.5,60.5C 201.309,62.7921 201.643,64.9588 201.5,67C 198.854,67.4974 196.187,67.6641 193.5,67.5C 190.26,67.2322 187.094,66.5655 184,65.5C 183.098,65.7432 182.265,66.0766 181.5,66.5C 179.593,63.6676 176.927,62.8343 173.5,64C 172.177,64.8159 171.511,65.9826 171.5,67.5C 170.21,66.9423 169.377,65.9423 169,64.5C 168.667,65.1667 168.333,65.8333 168,66.5C 165.281,65.5562 162.448,65.2229 159.5,65.5C 159.625,60.3775 159.625,55.0442 159.5,49.5 Z"/></g>
<g><path style="opacity:1" fill="#fbeede" d="M 40.5,59.5 C 41.3058,60.9972 41.9724,62.6639 42.5,64.5C 43.376,65.2508 44.376,65.7508 45.5,66C 45.2716,66.3988 44.9382,66.5654 44.5,66.5C 43.5,66.5 42.5,66.5 41.5,66.5C 33.6841,65.5076 25.6841,65.1743 17.5,65.5C 17.5,67.8333 17.5,70.1667 17.5,72.5C 16.6715,73.3324 15.8382,72.999 15,71.5C 14.6667,70.5 14.3333,69.5 14,68.5C 12.9562,70.7148 12.2895,73.0481 12,75.5C 11.5,74.5 11,73.5 10.5,72.5C 8.3691,71.8313 6.3691,71.1646 4.5,70.5C 4.60542,66.4517 4.27209,62.4517 3.5,58.5C 3.18665,55.7531 3.51998,53.0865 4.5,50.5C 5.67529,51.8549 6.67529,51.6883 7.5,50C 12.496,49.3893 17.496,48.8893 22.5,48.5C 22.5792,47.0695 22.2458,45.7362 21.5,44.5C 22.6888,43.5713 24.0222,43.238 25.5,43.5C 25.5,42.1667 25.5,40.8333 25.5,39.5C 27.1238,39.6399 28.2904,38.9733 29,37.5C 29.6667,38.1667 30.3333,38.8333 31,39.5C 31.3333,42.5 31.6667,45.5 32,48.5C 34.2348,53.1872 35.0682,58.1872 34.5,63.5C 36.5,63.5 38.5,63.5 40.5,63.5C 40.5,62.1667 40.5,60.8333 40.5,59.5 Z"/></g>
<g><path style="opacity:1" fill="#a29997" d="M 221.5,50.5 C 224.167,50.5 226.833,50.5 229.5,50.5C 231.292,51.3091 233.292,51.8091 235.5,52C 233.699,52.3173 233.366,52.984 234.5,54C 232.269,56.7481 231.269,59.9148 231.5,63.5C 228.794,63.5751 226.127,63.9084 223.5,64.5C 223.223,67.4475 223.556,70.2809 224.5,73C 223.584,73.2784 222.918,73.7784 222.5,74.5C 214.139,74.3597 206.139,74.0264 198.5,73.5C 194.287,74.9114 189.954,75.5781 185.5,75.5C 185.223,78.4475 185.556,81.2809 186.5,84C 182.139,85.9617 181.472,84.9617 184.5,81C 182.808,79.5993 182.141,77.7659 182.5,75.5C 179.772,75.8294 177.438,75.1628 175.5,73.5C 180.556,73.4617 182.556,71.1284 181.5,66.5C 182.265,66.0766 183.098,65.7432 184,65.5C 187.094,66.5655 190.26,67.2322 193.5,67.5C 196.442,69.4077 199.776,70.4077 203.5,70.5C 208.665,70.0338 213.665,68.8671 218.5,67C 220.915,61.7866 221.915,56.2866 221.5,50.5 Z"/></g>
<g><path style="opacity:1" fill="#ece5e4" d="M 133.5,68.5 C 128.495,71.9829 122.829,73.8162 116.5,74C 116.833,74.3333 117.167,74.6667 117.5,75C 115.292,75.1909 113.292,75.6909 111.5,76.5C 105.843,77.4904 102.51,80.8237 101.5,86.5C 100.833,86.1667 100.167,85.8333 99.5,85.5C 98.5568,82.5999 96.8901,80.2666 94.5,78.5C 95.166,76.3266 96.3326,75.9933 98,77.5C 101.612,75.4385 104.446,72.6051 106.5,69C 109.707,68.4283 111.374,66.595 111.5,63.5C 118.473,61.4722 125.473,60.4722 132.5,60.5C 135.229,62.4421 138.229,63.9421 141.5,65C 138.423,65.4609 135.756,66.6276 133.5,68.5 Z"/></g>
<g><path style="opacity:1" fill="#79766c" d="M 41.5,66.5 C 33.8333,66.5 26.1667,66.5 18.5,66.5C 18.5,68.5 18.5,70.5 18.5,72.5C 18.1667,72.5 17.8333,72.5 17.5,72.5C 17.5,70.1667 17.5,67.8333 17.5,65.5C 25.6841,65.1743 33.6841,65.5076 41.5,66.5 Z"/></g>
<g><path style="opacity:1" fill="#949394" d="M 229.5,50.5 C 241.833,50.5 254.167,50.5 266.5,50.5C 266.5,58.5 266.5,66.5 266.5,74.5C 260.725,74.555 255.225,74.2217 250,73.5C 249.667,74.1667 249.333,74.8333 249,75.5C 242.848,73.8329 236.681,73.6662 230.5,75C 232.382,75.1981 234.048,75.6981 235.5,76.5C 233.5,76.5 231.5,76.5 229.5,76.5C 229.389,75.8826 229.056,75.3826 228.5,75C 226.527,74.5045 224.527,74.3379 222.5,74.5C 222.918,73.7784 223.584,73.2784 224.5,73C 223.556,70.2809 223.223,67.4475 223.5,64.5C 226.127,63.9084 228.794,63.5751 231.5,63.5C 231.269,59.9148 232.269,56.7481 234.5,54C 233.366,52.984 233.699,52.3173 235.5,52C 233.292,51.8091 231.292,51.3091 229.5,50.5 Z"/></g>
<g><path style="opacity:1" fill="#1b1616" d="M 181.5,66.5 C 182.556,71.1284 180.556,73.4617 175.5,73.5C 172.196,72.8559 170.862,70.8559 171.5,67.5C 171.511,65.9826 172.177,64.8159 173.5,64C 176.927,62.8343 179.593,63.6676 181.5,66.5 Z"/></g>
<g><path style="opacity:1" fill="#d1c7c3" d="M 74.5,51.5 C 77.5719,51.1826 80.5719,51.5159 83.5,52.5C 84.3796,53.9441 85.3796,55.4441 86.5,57C 85.542,60.1633 85.3753,63.3299 86,66.5C 84,67.8333 82,67.8333 80,66.5C 79.5065,68.1341 79.3398,69.8008 79.5,71.5C 73.2213,71.4683 73.2213,72.6349 79.5,75C 78.6721,75.9147 77.6721,76.5814 76.5,77C 76.7284,77.3988 77.0618,77.5654 77.5,77.5C 72.491,81.1986 70.491,86.1986 71.5,92.5C 70.6981,91.0484 70.1981,89.3817 70,87.5C 69.3333,89.5 68.6667,91.5 68,93.5C 67.79,91.9419 67.29,90.6085 66.5,89.5C 66.5,80.8333 66.5,72.1667 66.5,63.5C 63.0381,62.5184 59.3714,62.185 55.5,62.5C 55.5,61.5 55.5,60.5 55.5,59.5C 66.1461,59.3293 66.1461,58.8293 55.5,58C 60.7551,56.9532 65.7551,57.4532 70.5,59.5C 71.7112,58.7261 71.7112,57.8928 70.5,57C 71.3279,56.0853 72.3279,55.4186 73.5,55C 72.552,54.5172 71.552,54.3505 70.5,54.5C 70.5,53.5 70.5,52.5 70.5,51.5C 71.8333,51.5 73.1667,51.5 74.5,51.5 Z"/></g>
<g><path style="opacity:1" fill="#e3d3cd" d="M 147.5,45.5 C 147.5,46.8333 148.167,47.5 149.5,47.5C 152.337,49.4023 155.671,50.069 159.5,49.5C 159.625,55.0442 159.625,60.3775 159.5,65.5C 150.948,67.3189 142.281,68.3189 133.5,68.5C 135.756,66.6276 138.423,65.4609 141.5,65C 138.229,63.9421 135.229,62.4421 132.5,60.5C 125.473,60.4722 118.473,61.4722 111.5,63.5C 111.374,66.595 109.707,68.4283 106.5,69C 104.446,72.6051 101.612,75.4385 98,77.5C 96.3326,75.9933 95.166,76.3266 94.5,78.5C 88.9984,76.2371 83.3318,75.9038 77.5,77.5C 77.0618,77.5654 76.7284,77.3988 76.5,77C 77.6721,76.5814 78.6721,75.9147 79.5,75C 73.2213,72.6349 73.2213,71.4683 79.5,71.5C 79.3398,69.8008 79.5065,68.1341 80,66.5C 82,67.8333 84,67.8333 86,66.5C 85.3753,63.3299 85.542,60.1633 86.5,57C 85.3796,55.4441 84.3796,53.9441 83.5,52.5C 80.5719,51.5159 77.5719,51.1826 74.5,51.5C 77.1667,50.8333 79.8333,50.1667 82.5,49.5C 82.5,48.8333 82.5,48.1667 82.5,47.5C 82.8333,47.5 83.1667,47.5 83.5,47.5C 88.1103,47.5959 88.4436,48.5959 84.5,50.5C 85.0253,51.1924 85.6919,51.6924 86.5,52C 96.5494,52.1349 106.549,52.8016 116.5,54C 116.818,57.8424 114.818,59.6757 110.5,59.5C 110.5,60.5 110.5,61.5 110.5,62.5C 118.979,60.6251 127.479,58.9585 136,57.5C 139.621,61.8387 142.621,61.5053 145,56.5C 145.633,52.6526 146.467,48.986 147.5,45.5 Z"/></g>
<g><path style="opacity:1" fill="#f1eacb" d="M 17.5,72.5 C 17.8333,72.5 18.1667,72.5 18.5,72.5C 19.5,72.5 20.5,72.5 21.5,72.5C 21.8254,80.3516 21.492,88.0182 20.5,95.5C 20.1667,95.5 19.8333,95.5 19.5,95.5C 19.5,93.8333 19.5,92.1667 19.5,90.5C 19.7947,88.2646 19.4614,86.2646 18.5,84.5C 18.001,81.6108 16.501,80.9442 14,82.5C 13.4806,81.4844 12.6473,80.8178 11.5,80.5C 9.31324,81.3222 7.64657,82.8222 6.5,85C 5.55198,85.4828 4.55198,85.6495 3.5,85.5C 2.7398,80.3655 3.07313,75.3655 4.5,70.5C 6.3691,71.1646 8.3691,71.8313 10.5,72.5C 11,73.5 11.5,74.5 12,75.5C 12.2895,73.0481 12.9562,70.7148 14,68.5C 14.3333,69.5 14.6667,70.5 15,71.5C 15.8382,72.999 16.6715,73.3324 17.5,72.5 Z"/></g>
<g><path style="opacity:1" fill="#b4aba8" d="M 171.5,67.5 C 170.862,70.8559 172.196,72.8559 175.5,73.5C 177.438,75.1628 179.772,75.8294 182.5,75.5C 182.141,77.7659 182.808,79.5993 184.5,81C 181.472,84.9617 182.139,85.9617 186.5,84C 185.556,81.2809 185.223,78.4475 185.5,75.5C 189.954,75.5781 194.287,74.9114 198.5,73.5C 206.139,74.0264 214.139,74.3597 222.5,74.5C 224.527,74.3379 226.527,74.5045 228.5,75C 229.056,75.3826 229.389,75.8826 229.5,76.5C 221.935,79.6292 219.102,85.2959 221,93.5C 221.959,95.953 223.126,98.2863 224.5,100.5C 222.926,100.063 221.759,99.0629 221,97.5C 220,94.5 219,91.5 218,88.5C 217.242,90.7695 217.409,92.9361 218.5,95C 217.906,95.4643 217.239,95.631 216.5,95.5C 216.771,90.0873 216.271,84.7539 215,79.5C 209.871,74.2117 204.705,74.2117 199.5,79.5C 198.614,78.675 198.281,77.675 198.5,76.5C 194.833,76.5 191.167,76.5 187.5,76.5C 188.869,82.7408 189.536,89.0741 189.5,95.5C 187.75,92.6446 186.917,89.3113 187,85.5C 182.691,87.6529 181.524,90.9862 183.5,95.5C 181.544,89.588 180.877,83.2547 181.5,76.5C 177.5,76.5 173.5,76.5 169.5,76.5C 169.5,78.8333 169.5,81.1667 169.5,83.5C 168.078,84.925 166.411,85.925 164.5,86.5C 164.5,85.5 164.5,84.5 164.5,83.5C 165.5,83.5 166.5,83.5 167.5,83.5C 167.5,81.1667 167.5,78.8333 167.5,76.5C 160.747,76.8723 154.08,76.8723 147.5,76.5C 142.04,76.1472 138.207,78.4805 136,83.5C 134.751,89.282 135.585,94.6154 138.5,99.5C 136.283,100.369 133.95,100.702 131.5,100.5C 130.846,96.1034 131.846,92.27 134.5,89C 134.333,88.1667 134.167,87.3333 134,86.5C 133.372,89.9535 132.205,90.2869 130.5,87.5C 130.5,86.1667 130.5,84.8333 130.5,83.5C 131.5,83.5 132.5,83.5 133.5,83.5C 133.5,81.1667 133.5,78.8333 133.5,76.5C 126.079,76.9751 118.745,76.9751 111.5,76.5C 113.292,75.6909 115.292,75.1909 117.5,75C 117.167,74.6667 116.833,74.3333 116.5,74C 122.829,73.8162 128.495,71.9829 133.5,68.5C 142.281,68.3189 150.948,67.3189 159.5,65.5C 162.448,65.2229 165.281,65.5562 168,66.5C 168.333,65.8333 168.667,65.1667 169,64.5C 169.377,65.9423 170.21,66.9423 171.5,67.5 Z"/></g>
<g><path style="opacity:1" fill="#c4bcb8" d="M 37.5,47.5 C 51.5894,49.4565 65.9228,50.1232 80.5,49.5C 81.1667,49.5 81.8333,49.5 82.5,49.5C 79.8333,50.1667 77.1667,50.8333 74.5,51.5C 73.1667,51.5 71.8333,51.5 70.5,51.5C 70.5,52.5 70.5,53.5 70.5,54.5C 71.552,54.3505 72.552,54.5172 73.5,55C 72.3279,55.4186 71.3279,56.0853 70.5,57C 71.7112,57.8928 71.7112,58.7261 70.5,59.5C 65.7551,57.4532 60.7551,56.9532 55.5,58C 66.1461,58.8293 66.1461,59.3293 55.5,59.5C 55.5,60.5 55.5,61.5 55.5,62.5C 59.3714,62.185 63.0381,62.5184 66.5,63.5C 62.5,63.5 58.5,63.5 54.5,63.5C 54.1849,66.2108 54.8516,68.5441 56.5,70.5C 55.1705,77.4523 54.6705,84.4523 55,91.5C 54.6667,92.5 54.3333,93.5 54,94.5C 53.79,92.9419 53.29,91.6085 52.5,90.5C 51.3893,86.8883 49.0559,84.3883 45.5,83C 50.2238,80.5647 51.7238,76.7314 50,71.5C 48.8935,68.887 47.0601,67.2203 44.5,66.5C 44.9382,66.5654 45.2716,66.3988 45.5,66C 44.376,65.7508 43.376,65.2508 42.5,64.5C 41.9724,62.6639 41.3058,60.9972 40.5,59.5C 40.0764,55.9882 39.0764,52.6548 37.5,49.5C 37.5,48.8333 37.5,48.1667 37.5,47.5 Z"/></g>
<g><path style="opacity:1" fill="#1a1814" d="M 111.5,76.5 C 118.745,76.9751 126.079,76.9751 133.5,76.5C 133.5,78.8333 133.5,81.1667 133.5,83.5C 132.5,83.5 131.5,83.5 130.5,83.5C 130.5,84.8333 130.5,86.1667 130.5,87.5C 130.666,92.8437 130.499,98.1771 130,103.5C 127.894,108.443 124.394,111.776 119.5,113.5C 116.5,113.5 113.5,113.5 110.5,113.5C 110.158,112.662 109.492,112.328 108.5,112.5C 105.268,112.228 103.268,110.562 102.5,107.5C 103.558,106.4 104.392,105.066 105,103.5C 109.212,106.721 113.712,107.221 118.5,105C 119.554,103.612 119.72,102.112 119,100.5C 106.691,104.381 100.858,99.7144 101.5,86.5C 102.51,80.8237 105.843,77.4904 111.5,76.5 Z"/></g>
<g><path style="opacity:1" fill="#fbeab9" d="M -0.5,58.5 C 0.964302,59.4054 2.29764,59.4054 3.5,58.5C 4.27209,62.4517 4.60542,66.4517 4.5,70.5C 3.07313,75.3655 2.7398,80.3655 3.5,85.5C 4.55198,85.6495 5.55198,85.4828 6.5,85C 7.64657,82.8222 9.31324,81.3222 11.5,80.5C 12.6473,80.8178 13.4806,81.4844 14,82.5C 16.501,80.9442 18.001,81.6108 18.5,84.5C 14.3646,84.2262 10.1979,84.8929 6,86.5C 4.90199,87.3839 4.40199,88.3839 4.5,89.5C 3.15848,87.9951 1.49181,87.3285 -0.5,87.5C -0.5,77.8333 -0.5,68.1667 -0.5,58.5 Z"/></g>
<g><path style="opacity:1" fill="#534947" d="M 225.5,23.5 C 227.164,24.9488 227.998,26.9488 228,29.5C 228.804,35.5692 228.471,41.5692 227,47.5C 222.295,48.8823 222.461,49.5489 227.5,49.5C 240.833,49.5 254.167,49.5 267.5,49.5C 267.831,76.0053 267.498,102.339 266.5,128.5C 266.5,110.5 266.5,92.5 266.5,74.5C 266.5,66.5 266.5,58.5 266.5,50.5C 254.167,50.5 241.833,50.5 229.5,50.5C 226.833,50.5 224.167,50.5 221.5,50.5C 221.5,50.1667 221.5,49.8333 221.5,49.5C 222.787,46.302 223.453,42.9686 223.5,39.5C 224.268,38.7375 224.768,37.7375 225,36.5C 225.499,32.1794 225.666,27.8461 225.5,23.5 Z"/></g>
<g><path style="opacity:1" fill="#b1a9a6" d="M 119.5,86.5 C 118.698,87.9516 118.198,89.6183 118,91.5C 116.984,90.3659 116.317,90.6992 116,92.5C 115.023,91.2264 114.189,91.2264 113.5,92.5C 112.366,90.0336 112.199,87.367 113,84.5C 116.197,81.6204 118.364,82.2871 119.5,86.5 Z"/></g>
<g><path style="opacity:1" fill="#d2cdcc" d="M 169.5,83.5 C 170.8,85.223 171.467,87.3897 171.5,90C 170.979,93.8905 170.312,97.7239 169.5,101.5C 168.693,96.3691 167.193,96.3691 165,101.5C 164.501,96.5111 164.334,91.5111 164.5,86.5C 166.411,85.925 168.078,84.925 169.5,83.5 Z"/></g>
<g><path style="opacity:1" fill="#1a1714" d="M 41.5,66.5 C 42.5,66.5 43.5,66.5 44.5,66.5C 47.0601,67.2203 48.8935,68.887 50,71.5C 51.7238,76.7314 50.2238,80.5647 45.5,83C 49.0559,84.3883 51.3893,86.8883 52.5,90.5C 53.0285,95.618 51.0285,99.2846 46.5,101.5C 45.209,101.263 44.209,101.596 43.5,102.5C 42.8333,102.5 42.1667,102.5 41.5,102.5C 33.8333,102.5 26.1667,102.5 18.5,102.5C 18.1849,99.7892 18.8516,97.4559 20.5,95.5C 21.492,88.0182 21.8254,80.3516 21.5,72.5C 20.5,72.5 19.5,72.5 18.5,72.5C 18.5,70.5 18.5,68.5 18.5,66.5C 26.1667,66.5 33.8333,66.5 41.5,66.5 Z"/></g>
<g><path style="opacity:1" fill="#e2d8c0" d="M 31.5,72.5 C 37.487,71.9773 39.487,74.4773 37.5,80C 35.5273,80.4955 33.5273,80.6621 31.5,80.5C 31.5,77.8333 31.5,75.1667 31.5,72.5 Z"/></g>
<g><path style="opacity:1" fill="#fad3a7" d="M 18.5,84.5 C 19.4614,86.2646 19.7947,88.2646 19.5,90.5C 15.8845,94.5734 11.2178,96.5734 5.5,96.5C 5.05758,97.7387 4.39092,98.7387 3.5,99.5C 3.66409,96.8127 3.49742,94.146 3,91.5C 2.29044,90.0267 1.12377,89.3601 -0.5,89.5C -0.5,88.8333 -0.5,88.1667 -0.5,87.5C 1.49181,87.3285 3.15848,87.9951 4.5,89.5C 4.40199,88.3839 4.90199,87.3839 6,86.5C 10.1979,84.8929 14.3646,84.2262 18.5,84.5 Z"/></g>
<g><path style="opacity:1" fill="#a69c9d" d="M 169.5,87.5 C 170.793,89.3635 170.793,91.3635 169.5,93.5C 168.186,94.3128 167.019,95.3128 166,96.5C 164.844,92.4152 166.011,89.4152 169.5,87.5 Z"/></g>
<g><path style="opacity:1" fill="#eae8e3" d="M 119.5,86.5 C 119.664,89.1873 119.497,91.854 119,94.5C 116.189,96.1797 114.356,95.5131 113.5,92.5C 114.189,91.2264 115.023,91.2264 116,92.5C 116.317,90.6992 116.984,90.3659 118,91.5C 118.198,89.6183 118.698,87.9516 119.5,86.5 Z"/></g>
<g><path style="opacity:1" fill="#e2d0c4" d="M 31.5,86.5 C 33.8568,86.3367 36.1902,86.5034 38.5,87C 41.5769,93.7852 39.2436,96.9518 31.5,96.5C 31.5,93.1667 31.5,89.8333 31.5,86.5 Z"/></g>
<g><path style="opacity:1" fill="#e89c4d" d="M -0.5,89.5 C 1.12377,89.3601 2.29044,90.0267 3,91.5C 3.49742,94.146 3.66409,96.8127 3.5,99.5C 2.5275,101.139 1.19416,102.473 -0.5,103.5C -0.5,98.8333 -0.5,94.1667 -0.5,89.5 Z"/></g>
<g><path style="opacity:1" fill="#1a1714" d="M 229.5,76.5 C 231.5,76.5 233.5,76.5 235.5,76.5C 241.046,76.7236 246.713,76.7236 252.5,76.5C 252.5,78.8333 252.5,81.1667 252.5,83.5C 251.5,83.5 250.5,83.5 249.5,83.5C 249.5,90.1667 249.5,96.8333 249.5,103.5C 244.658,112.16 237.325,115.16 227.5,112.5C 221.254,111.352 220.088,108.352 224,103.5C 227.761,106.243 231.928,107.076 236.5,106C 239.059,104.677 239.725,102.843 238.5,100.5C 233.837,103.072 229.17,103.072 224.5,100.5C 223.126,98.2863 221.959,95.953 221,93.5C 219.102,85.2959 221.935,79.6292 229.5,76.5 Z"/></g>
<g><path style="opacity:1" fill="#a8a39f" d="M 233.5,82.5 C 237.568,82.9307 239.568,85.264 239.5,89.5C 239.239,95.5039 236.739,96.8372 232,93.5C 231.013,89.5252 231.513,85.8585 233.5,82.5 Z"/></g>
<g><path style="opacity:1" fill="#1b1715" d="M 94.5,78.5 C 96.8901,80.2666 98.5568,82.5999 99.5,85.5C 100.445,91.2356 99.1114,96.2356 95.5,100.5C 87.7853,105.068 80.6187,104.401 74,98.5C 72.4412,96.7834 71.6079,94.7834 71.5,92.5C 70.491,86.1986 72.491,81.1986 77.5,77.5C 83.3318,75.9038 88.9984,76.2371 94.5,78.5 Z"/></g>
<g><path style="opacity:1" fill="#e0dbd7" d="M 84.5,82.5 C 88.0833,83.4224 89.7499,85.7558 89.5,89.5C 89.9275,92.9926 88.5942,95.326 85.5,96.5C 84.5581,96.3918 83.7247,96.0585 83,95.5C 80.6793,90.7736 81.1793,86.4403 84.5,82.5 Z"/></g>
<g><path style="opacity:1" fill="#e8c0ae" d="M 19.5,90.5 C 19.5,92.1667 19.5,93.8333 19.5,95.5C 17.8356,96.9488 17.0023,98.9488 17,101.5C 16.6667,100.167 16.3333,98.8333 16,97.5C 15.1667,99 14,100.167 12.5,101C 9.37544,101.544 6.37544,102.377 3.5,103.5C 3.5,102.167 3.5,100.833 3.5,99.5C 4.39092,98.7387 5.05758,97.7387 5.5,96.5C 11.2178,96.5734 15.8845,94.5734 19.5,90.5 Z"/></g>
<g><path style="opacity:1" fill="#191613" d="M 183.5,95.5 C 183.5,97.8333 183.5,100.167 183.5,102.5C 180.167,102.5 176.833,102.5 173.5,102.5C 171.901,102.768 170.568,102.434 169.5,101.5C 170.312,97.7239 170.979,93.8905 171.5,90C 171.467,87.3897 170.8,85.223 169.5,83.5C 169.5,81.1667 169.5,78.8333 169.5,76.5C 173.5,76.5 177.5,76.5 181.5,76.5C 180.877,83.2547 181.544,89.588 183.5,95.5 Z"/></g>
<g><path style="opacity:1" fill="#1a1714" d="M 66.5,63.5 C 66.5,72.1667 66.5,80.8333 66.5,89.5C 66.5,91.5 66.5,93.5 66.5,95.5C 67.5,95.5 68.5,95.5 69.5,95.5C 69.5,97.8333 69.5,100.167 69.5,102.5C 64.5,102.5 59.5,102.5 54.5,102.5C 56.1197,91.9156 56.7864,81.2489 56.5,70.5C 54.8516,68.5441 54.1849,66.2108 54.5,63.5C 58.5,63.5 62.5,63.5 66.5,63.5 Z"/></g>
<g><path style="opacity:1" fill="#1a1713" d="M 216.5,95.5 C 218.148,97.4559 218.815,99.7892 218.5,102.5C 214.167,102.5 209.833,102.5 205.5,102.5C 205.666,96.4908 205.499,90.4908 205,84.5C 203.333,83.1667 201.667,83.1667 200,84.5C 199.501,88.4862 199.334,92.4862 199.5,96.5C 200.5,96.5 201.5,96.5 202.5,96.5C 202.5,98.5 202.5,100.5 202.5,102.5C 197.5,102.5 192.5,102.5 187.5,102.5C 187.185,99.7892 187.852,97.4559 189.5,95.5C 189.536,89.0741 188.869,82.7408 187.5,76.5C 191.167,76.5 194.833,76.5 198.5,76.5C 198.281,77.675 198.614,78.675 199.5,79.5C 204.705,74.2117 209.871,74.2117 215,79.5C 216.271,84.7539 216.771,90.0873 216.5,95.5 Z"/></g>
<g><path style="opacity:1" fill="#d0c5c2" d="M 99.5,85.5 C 100.167,85.8333 100.833,86.1667 101.5,86.5C 100.858,99.7144 106.691,104.381 119,100.5C 119.72,102.112 119.554,103.612 118.5,105C 113.712,107.221 109.212,106.721 105,103.5C 104.392,105.066 103.558,106.4 102.5,107.5C 101.737,106.732 100.737,106.232 99.5,106C 99.9574,105.586 100.291,105.086 100.5,104.5C 98.8872,103.573 97.2205,102.739 95.5,102C 96.7383,101.31 96.7383,100.81 95.5,100.5C 99.1114,96.2356 100.445,91.2356 99.5,85.5 Z"/></g>
<g><path style="opacity:1" fill="#b3aeaa" d="M 143.5,105.5 C 144.738,105.19 144.738,104.69 143.5,104C 145.058,103.79 146.391,103.29 147.5,102.5C 149.441,102.131 151.275,101.464 153,100.5C 153.536,102.567 153.036,104.401 151.5,106C 148.633,106.801 145.966,106.634 143.5,105.5 Z"/></g>
<g><path style="opacity:1" fill="#a29996" d="M 216.5,95.5 C 217.239,95.631 217.906,95.4643 218.5,95C 217.409,92.9361 217.242,90.7695 218,88.5C 219,91.5 220,94.5 221,97.5C 221.759,99.0629 222.926,100.063 224.5,100.5C 229.17,103.072 233.837,103.072 238.5,100.5C 239.725,102.843 239.059,104.677 236.5,106C 231.928,107.076 227.761,106.243 224,103.5C 220.088,108.352 221.254,111.352 227.5,112.5C 226.151,113.797 224.818,113.63 223.5,112C 221.5,111.333 219.5,111.333 217.5,112C 216.448,113.716 217.114,114.716 219.5,115C 220.696,115.654 220.696,116.154 219.5,116.5C 215.149,113.395 211.482,114.061 208.5,118.5C 207.516,121.428 207.183,124.428 207.5,127.5C 200.5,127.5 193.5,127.5 186.5,127.5C 186.281,126.325 186.614,125.325 187.5,124.5C 188.931,124.023 190.264,123.357 191.5,122.5C 191.167,121.833 190.833,121.167 190.5,120.5C 193.54,118.295 196.04,115.628 198,112.5C 199.947,111.89 201.781,111.057 203.5,110C 200.101,109.454 196.768,109.787 193.5,111C 190.474,113.195 187.141,114.695 183.5,115.5C 185.045,116.452 186.712,116.785 188.5,116.5C 188.698,119.77 187.198,121.77 184,122.5C 180.113,120.203 175.946,119.369 171.5,120C 169.65,122.018 167.65,123.851 165.5,125.5C 166.025,126.192 166.692,126.692 167.5,127C 163.833,127.667 160.167,127.667 156.5,127C 157.668,125.594 157.335,124.428 155.5,123.5C 160.675,120.607 165.342,117.273 169.5,113.5C 169.281,112.325 169.614,111.325 170.5,110.5C 172.071,111.309 173.738,111.643 175.5,111.5C 175.5,110.167 175.5,108.833 175.5,107.5C 177.199,107.66 178.866,107.494 180.5,107C 179.167,106.333 179.167,105.667 180.5,105C 186.287,104.09 187.954,100.923 185.5,95.5C 184.832,97.9688 184.165,100.302 183.5,102.5C 183.5,100.167 183.5,97.8333 183.5,95.5C 181.524,90.9862 182.691,87.6529 187,85.5C 186.917,89.3113 187.75,92.6446 189.5,95.5C 187.852,97.4559 187.185,99.7892 187.5,102.5C 192.5,102.5 197.5,102.5 202.5,102.5C 202.5,100.5 202.5,98.5 202.5,96.5C 201.5,96.5 200.5,96.5 199.5,96.5C 199.334,92.4862 199.501,88.4862 200,84.5C 201.667,83.1667 203.333,83.1667 205,84.5C 205.499,90.4908 205.666,96.4908 205.5,102.5C 209.833,102.5 214.167,102.5 218.5,102.5C 218.815,99.7892 218.148,97.4559 216.5,95.5 Z"/></g>
<g><path style="opacity:1" fill="#eeceb4" d="M 41.5,102.5 C 42.1667,102.5 42.8333,102.5 43.5,102.5C 45.2239,102.461 45.5573,102.794 44.5,103.5C 43.2223,103.782 42.2223,104.449 41.5,105.5C 38.5547,104.532 35.5547,104.366 32.5,105C 26.977,108.072 21.6436,111.406 16.5,115C 10.2987,114.356 7.96535,116.856 9.5,122.5C 8.5,122.5 7.5,122.5 6.5,122.5C 6.38958,119.941 7.05625,117.608 8.5,115.5C 11.0213,114.312 13.3547,112.978 15.5,111.5C 18.6896,109.406 21.6896,107.072 24.5,104.5C 30.3195,103.833 35.9861,103.167 41.5,102.5 Z"/></g>
<g><path style="opacity:1" fill="#eae5d5" d="M 138.5,99.5 C 140.997,101.871 143.997,102.871 147.5,102.5C 146.391,103.29 145.058,103.79 143.5,104C 144.738,104.69 144.738,105.19 143.5,105.5C 141.742,105.123 140.075,104.456 138.5,103.5C 137.638,104.766 136.971,106.099 136.5,107.5C 135.198,106.193 133.865,106.193 132.5,107.5C 129.914,110.275 127.747,113.275 126,116.5C 124.686,115.687 123.519,114.687 122.5,113.5C 121.438,114.425 121.438,115.425 122.5,116.5C 120.5,116.5 119.5,115.5 119.5,113.5C 124.394,111.776 127.894,108.443 130,103.5C 130.499,98.1771 130.666,92.8437 130.5,87.5C 132.205,90.2869 133.372,89.9535 134,86.5C 134.167,87.3333 134.333,88.1667 134.5,89C 131.846,92.27 130.846,96.1034 131.5,100.5C 133.95,100.702 136.283,100.369 138.5,99.5 Z"/></g>
<g><path style="opacity:1" fill="#1b1815" d="M 164.5,83.5 C 163.671,90.3213 163.171,97.3213 163,104.5C 162.096,107.233 160.596,109.567 158.5,111.5C 156.214,111.595 154.214,112.262 152.5,113.5C 146.182,114.336 140.515,112.836 135.5,109C 136.056,108.617 136.389,108.117 136.5,107.5C 136.971,106.099 137.638,104.766 138.5,103.5C 140.075,104.456 141.742,105.123 143.5,105.5C 145.966,106.634 148.633,106.801 151.5,106C 153.036,104.401 153.536,102.567 153,100.5C 151.275,101.464 149.441,102.131 147.5,102.5C 143.997,102.871 140.997,101.871 138.5,99.5C 135.585,94.6154 134.751,89.282 136,83.5C 138.207,78.4805 142.04,76.1472 147.5,76.5C 154.08,76.8723 160.747,76.8723 167.5,76.5C 167.5,78.8333 167.5,81.1667 167.5,83.5C 166.5,83.5 165.5,83.5 164.5,83.5 Z"/></g>
<g><path style="opacity:1" fill="#aba6a2" d="M 148.5,82.5 C 150.39,82.2965 151.89,82.9632 153,84.5C 153.667,87.5 153.667,90.5 153,93.5C 151.33,95.6983 149.33,96.0317 147,94.5C 145.994,90.1985 146.494,86.1985 148.5,82.5 Z"/></g>
<g><path style="opacity:1" fill="#c3aca2" d="M 19.5,95.5 C 19.8333,95.5 20.1667,95.5 20.5,95.5C 18.8516,97.4559 18.1849,99.7892 18.5,102.5C 26.1667,102.5 33.8333,102.5 41.5,102.5C 35.9861,103.167 30.3195,103.833 24.5,104.5C 21.6896,107.072 18.6896,109.406 15.5,111.5C 11.0189,112.158 7.01888,113.825 3.5,116.5C 3.5,112.167 3.5,107.833 3.5,103.5C 6.37544,102.377 9.37544,101.544 12.5,101C 14,100.167 15.1667,99 16,97.5C 16.3333,98.8333 16.6667,100.167 17,101.5C 17.0023,98.9488 17.8356,96.9488 19.5,95.5 Z"/></g>
<g><path style="opacity:1" fill="#f8c8a3" d="M 41.5,105.5 C 41.6653,108.504 40.3319,110.504 37.5,111.5C 35.3199,116.845 32.1533,121.512 28,125.5C 27.5172,126.448 27.3505,127.448 27.5,128.5C 26.8333,128.5 26.1667,128.5 25.5,128.5C 22.1667,128.5 18.8333,128.5 15.5,128.5C 8.83333,128.167 8.83333,127.833 15.5,127.5C 15.5,126.167 15.5,124.833 15.5,123.5C 13.4352,123.483 11.4352,123.15 9.5,122.5C 7.96535,116.856 10.2987,114.356 16.5,115C 21.6436,111.406 26.977,108.072 32.5,105C 35.5547,104.366 38.5547,104.532 41.5,105.5 Z"/></g>
<g><path style="opacity:1" fill="#e9eae8" d="M 56.5,70.5 C 56.7864,81.2489 56.1197,91.9156 54.5,102.5C 59.5,102.5 64.5,102.5 69.5,102.5C 69.5,100.167 69.5,97.8333 69.5,95.5C 68.5,95.5 67.5,95.5 66.5,95.5C 66.5,93.5 66.5,91.5 66.5,89.5C 67.29,90.6085 67.79,91.9419 68,93.5C 68.6667,91.5 69.3333,89.5 70,87.5C 70.1981,89.3817 70.6981,91.0484 71.5,92.5C 71.6079,94.7834 72.4412,96.7834 74,98.5C 80.6187,104.401 87.7853,105.068 95.5,100.5C 96.7383,100.81 96.7383,101.31 95.5,102C 97.2205,102.739 98.8872,103.573 100.5,104.5C 100.291,105.086 99.9574,105.586 99.5,106C 100.737,106.232 101.737,106.732 102.5,107.5C 103.268,110.562 105.268,112.228 108.5,112.5C 109.379,116.568 111.379,120.068 114.5,123C 114.989,124.138 115.322,125.305 115.5,126.5C 111.154,126.666 106.821,126.499 102.5,126C 102.043,125.586 101.709,125.086 101.5,124.5C 105.122,123.675 108.789,123.175 112.5,123C 108.179,122.501 103.846,122.334 99.5,122.5C 99.5,121.5 99.5,120.5 99.5,119.5C 102.85,119.665 106.183,119.498 109.5,119C 105.179,118.501 100.846,118.334 96.5,118.5C 96.0137,116.193 96.0137,114.027 96.5,112C 94.3442,110.01 92.3442,107.843 90.5,105.5C 90.1667,105.833 89.8333,106.167 89.5,106.5C 94.1354,112.246 92.4687,114.913 84.5,114.5C 87.9528,115.282 91.2862,115.616 94.5,115.5C 91.5,116.167 88.5,116.833 85.5,117.5C 86.5432,121.067 87.8765,124.4 89.5,127.5C 89.5,128.167 89.5,128.833 89.5,129.5C 72.5125,129.199 55.8458,128.199 39.5,126.5C 42.159,118.857 44.8256,111.191 47.5,103.5C 47.1373,102.817 46.8039,102.15 46.5,101.5C 51.0285,99.2846 53.0285,95.618 52.5,90.5C 53.29,91.6085 53.79,92.9419 54,94.5C 54.3333,93.5 54.6667,92.5 55,91.5C 54.6705,84.4523 55.1705,77.4523 56.5,70.5 Z"/></g>
<g><path style="opacity:1" fill="#6d483b" d="M 3.5,99.5 C 3.5,100.833 3.5,102.167 3.5,103.5C 3.5,107.833 3.5,112.167 3.5,116.5C 3.5,120.5 3.5,124.5 3.5,128.5C 2.29208,127.766 0.95875,127.433 -0.5,127.5C -0.5,119.5 -0.5,111.5 -0.5,103.5C 1.19416,102.473 2.5275,101.139 3.5,99.5 Z"/></g>
<g><path style="opacity:1" fill="#9d908f" d="M 164.5,83.5 C 164.5,84.5 164.5,85.5 164.5,86.5C 164.334,91.5111 164.501,96.5111 165,101.5C 167.193,96.3691 168.693,96.3691 169.5,101.5C 170.568,102.434 171.901,102.768 173.5,102.5C 172.952,104.394 171.952,106.06 170.5,107.5C 163.76,113.618 156.927,119.618 150,125.5C 148.242,124.748 146.075,123.914 143.5,123C 146.552,122.118 148.886,120.284 150.5,117.5C 153.534,116.433 156.534,115.266 159.5,114C 158.748,113.329 158.414,112.496 158.5,111.5C 160.596,109.567 162.096,107.233 163,104.5C 163.171,97.3213 163.671,90.3213 164.5,83.5 Z"/></g>
<g><path style="opacity:1" fill="#d9dad9" d="M 115.5,126.5 C 117.43,126.771 118.764,127.771 119.5,129.5C 119.5,129.833 119.5,130.167 119.5,130.5C 115.361,131.563 111.028,132.23 106.5,132.5C 104.946,131.086 103.612,129.419 102.5,127.5C 102.193,128.887 102.193,130.554 102.5,132.5C 99.3752,133.479 96.0419,133.813 92.5,133.5C 92.1961,132.85 91.8627,132.183 91.5,131.5C 94.1667,130.833 96.8333,130.167 99.5,129.5C 96.1337,128.76 92.8004,128.093 89.5,127.5C 87.8765,124.4 86.5432,121.067 85.5,117.5C 88.5,116.833 91.5,116.167 94.5,115.5C 91.2862,115.616 87.9528,115.282 84.5,114.5C 92.4687,114.913 94.1354,112.246 89.5,106.5C 89.8333,106.167 90.1667,105.833 90.5,105.5C 92.3442,107.843 94.3442,110.01 96.5,112C 96.0137,114.027 96.0137,116.193 96.5,118.5C 100.846,118.334 105.179,118.501 109.5,119C 106.183,119.498 102.85,119.665 99.5,119.5C 99.5,120.5 99.5,121.5 99.5,122.5C 103.846,122.334 108.179,122.501 112.5,123C 108.789,123.175 105.122,123.675 101.5,124.5C 101.709,125.086 102.043,125.586 102.5,126C 106.821,126.499 111.154,126.666 115.5,126.5 Z"/></g>
<g><path style="opacity:1" fill="#d1ae97" d="M 15.5,111.5 C 13.3547,112.978 11.0213,114.312 8.5,115.5C 7.05625,117.608 6.38958,119.941 6.5,122.5C 7.5,122.5 8.5,122.5 9.5,122.5C 11.4352,123.15 13.4352,123.483 15.5,123.5C 15.5,124.833 15.5,126.167 15.5,127.5C 8.83333,127.833 8.83333,128.167 15.5,128.5C 15.5,128.833 15.5,129.167 15.5,129.5C 13.8333,129.5 12.1667,129.5 10.5,129.5C 8.16667,129.5 5.83333,129.5 3.5,129.5C 3.5,129.167 3.5,128.833 3.5,128.5C 3.5,124.5 3.5,120.5 3.5,116.5C 7.01888,113.825 11.0189,112.158 15.5,111.5 Z"/></g>
<g><path style="opacity:1" fill="#c1a898" d="M 44.5,103.5 C 41.0087,111.997 37.3421,120.33 33.5,128.5C 31.5,128.5 29.5,128.5 27.5,128.5C 27.3505,127.448 27.5172,126.448 28,125.5C 32.1533,121.512 35.3199,116.845 37.5,111.5C 40.3319,110.504 41.6653,108.504 41.5,105.5C 42.2223,104.449 43.2223,103.782 44.5,103.5 Z"/></g>
<g><path style="opacity:1" fill="#958e8c" d="M 43.5,102.5 C 44.209,101.596 45.209,101.263 46.5,101.5C 46.8039,102.15 47.1373,102.817 47.5,103.5C 44.8256,111.191 42.159,118.857 39.5,126.5C 38.5655,127.568 38.2322,128.901 38.5,130.5C 38.1667,130.5 37.8333,130.5 37.5,130.5C 34.7131,129.523 31.7131,129.19 28.5,129.5C 28.1667,129.5 27.8333,129.5 27.5,129.5C 26.8333,129.5 26.1667,129.5 25.5,129.5C 25.5,129.167 25.5,128.833 25.5,128.5C 26.1667,128.5 26.8333,128.5 27.5,128.5C 29.5,128.5 31.5,128.5 33.5,128.5C 37.3421,120.33 41.0087,111.997 44.5,103.5C 45.5573,102.794 45.2239,102.461 43.5,102.5 Z"/></g>
<g><path style="opacity:1" fill="#a8a1a0" d="M 266.5,74.5 C 266.5,92.5 266.5,110.5 266.5,128.5C 249.675,129.497 232.675,129.83 215.5,129.5C 195.167,129.5 174.833,129.5 154.5,129.5C 151.974,128.343 149.307,128.343 146.5,129.5C 146.611,128.883 146.944,128.383 147.5,128C 145.283,126.732 143.283,125.232 141.5,123.5C 143.349,117.976 147.016,114.643 152.5,113.5C 154.214,112.262 156.214,111.595 158.5,111.5C 158.414,112.496 158.748,113.329 159.5,114C 156.534,115.266 153.534,116.433 150.5,117.5C 148.886,120.284 146.552,122.118 143.5,123C 146.075,123.914 148.242,124.748 150,125.5C 156.927,119.618 163.76,113.618 170.5,107.5C 171.952,106.06 172.952,104.394 173.5,102.5C 176.833,102.5 180.167,102.5 183.5,102.5C 184.165,100.302 184.832,97.9688 185.5,95.5C 187.954,100.923 186.287,104.09 180.5,105C 179.167,105.667 179.167,106.333 180.5,107C 178.866,107.494 177.199,107.66 175.5,107.5C 175.5,108.833 175.5,110.167 175.5,111.5C 173.738,111.643 172.071,111.309 170.5,110.5C 169.614,111.325 169.281,112.325 169.5,113.5C 165.342,117.273 160.675,120.607 155.5,123.5C 157.335,124.428 157.668,125.594 156.5,127C 160.167,127.667 163.833,127.667 167.5,127C 166.692,126.692 166.025,126.192 165.5,125.5C 167.65,123.851 169.65,122.018 171.5,120C 175.946,119.369 180.113,120.203 184,122.5C 187.198,121.77 188.698,119.77 188.5,116.5C 186.712,116.785 185.045,116.452 183.5,115.5C 187.141,114.695 190.474,113.195 193.5,111C 196.768,109.787 200.101,109.454 203.5,110C 201.781,111.057 199.947,111.89 198,112.5C 196.04,115.628 193.54,118.295 190.5,120.5C 190.833,121.167 191.167,121.833 191.5,122.5C 190.264,123.357 188.931,124.023 187.5,124.5C 186.614,125.325 186.281,126.325 186.5,127.5C 193.5,127.5 200.5,127.5 207.5,127.5C 226.833,127.5 246.167,127.5 265.5,127.5C 265.667,113.496 265.5,99.496 265,85.5C 263.43,84.386 262.097,83.0526 261,81.5C 259.014,85.577 255.847,87.077 251.5,86C 255.226,84.9568 254.893,84.4568 250.5,84.5C 250.823,91.0221 250.49,97.3554 249.5,103.5C 249.5,96.8333 249.5,90.1667 249.5,83.5C 250.5,83.5 251.5,83.5 252.5,83.5C 252.5,81.1667 252.5,78.8333 252.5,76.5C 246.713,76.7236 241.046,76.7236 235.5,76.5C 234.048,75.6981 232.382,75.1981 230.5,75C 236.681,73.6662 242.848,73.8329 249,75.5C 249.333,74.8333 249.667,74.1667 250,73.5C 255.225,74.2217 260.725,74.555 266.5,74.5 Z"/></g>
<g><path style="opacity:1" fill="#949292" d="M 207.5,127.5 C 207.183,124.428 207.516,121.428 208.5,118.5C 211.482,114.061 215.149,113.395 219.5,116.5C 220.696,116.154 220.696,115.654 219.5,115C 217.114,114.716 216.448,113.716 217.5,112C 219.5,111.333 221.5,111.333 223.5,112C 224.818,113.63 226.151,113.797 227.5,112.5C 237.325,115.16 244.658,112.16 249.5,103.5C 250.49,97.3554 250.823,91.0221 250.5,84.5C 254.893,84.4568 255.226,84.9568 251.5,86C 255.847,87.077 259.014,85.577 261,81.5C 262.097,83.0526 263.43,84.386 265,85.5C 265.5,99.496 265.667,113.496 265.5,127.5C 246.167,127.5 226.833,127.5 207.5,127.5 Z"/></g>
<g><path style="opacity:1" fill="#b7bac1" d="M 136.5,107.5 C 136.389,108.117 136.056,108.617 135.5,109C 140.515,112.836 146.182,114.336 152.5,113.5C 147.016,114.643 143.349,117.976 141.5,123.5C 143.283,125.232 145.283,126.732 147.5,128C 146.944,128.383 146.611,128.883 146.5,129.5C 143.661,129.031 140.995,129.031 138.5,129.5C 136.895,128.031 136.395,128.365 137,130.5C 139.961,132.862 142.461,135.528 144.5,138.5C 143.848,139.725 142.681,140.392 141,140.5C 132.631,142.664 126.797,139.664 123.5,131.5C 127.122,130.675 130.789,130.175 134.5,130C 129.511,129.501 124.511,129.334 119.5,129.5C 118.764,127.771 117.43,126.771 115.5,126.5C 115.322,125.305 114.989,124.138 114.5,123C 111.379,120.068 109.379,116.568 108.5,112.5C 109.492,112.328 110.158,112.662 110.5,113.5C 111.575,117.396 113.575,120.729 116.5,123.5C 120.983,124.928 125.316,124.762 129.5,123C 128.003,121.129 126.003,120.129 123.5,120C 125.612,118.783 125.279,117.617 122.5,116.5C 121.438,115.425 121.438,114.425 122.5,113.5C 123.519,114.687 124.686,115.687 126,116.5C 127.747,113.275 129.914,110.275 132.5,107.5C 133.865,106.193 135.198,106.193 136.5,107.5 Z"/></g>
<g><path style="opacity:1" fill="#e4e0e3" d="M 110.5,113.5 C 113.5,113.5 116.5,113.5 119.5,113.5C 119.5,115.5 120.5,116.5 122.5,116.5C 125.279,117.617 125.612,118.783 123.5,120C 126.003,120.129 128.003,121.129 129.5,123C 125.316,124.762 120.983,124.928 116.5,123.5C 113.575,120.729 111.575,117.396 110.5,113.5 Z"/></g>
<g><path style="opacity:1" fill="#e9e7ea" d="M 130.5,124.5 C 131.962,125.458 133.295,126.624 134.5,128C 129.467,128.829 124.467,128.662 119.5,127.5C 119.291,126.914 118.957,126.414 118.5,126C 122.688,125.824 126.688,125.324 130.5,124.5 Z"/></g>
<g><path style="opacity:1" fill="#c26d41" d="M 15.5,128.5 C 18.8333,128.5 22.1667,128.5 25.5,128.5C 25.5,128.833 25.5,129.167 25.5,129.5C 25.0346,134.511 22.2013,137.177 17,137.5C 15.2676,137.266 14.4342,136.266 14.5,134.5C 15.0463,132.865 15.3796,131.199 15.5,129.5C 15.5,129.167 15.5,128.833 15.5,128.5 Z"/></g>
<g><path style="opacity:1" fill="#8593a1" d="M 146.5,129.5 C 149.307,128.343 151.974,128.343 154.5,129.5C 152.776,129.461 152.443,129.794 153.5,130.5C 151.695,132.197 149.361,133.03 146.5,133C 150.918,133.624 155.251,134.457 159.5,135.5C 159.586,136.496 159.252,137.329 158.5,138C 154.833,138.667 151.167,138.667 147.5,138C 145.393,136.736 144.393,134.903 144.5,132.5C 141.687,132.975 139.687,131.975 138.5,129.5C 140.995,129.031 143.661,129.031 146.5,129.5 Z"/></g>
<g><path style="opacity:1" fill="#c9c9c7" d="M 39.5,126.5 C 55.8458,128.199 72.5125,129.199 89.5,129.5C 90.688,133.552 91.688,137.552 92.5,141.5C 92.046,144.14 90.8793,146.473 89,148.5C 81.4,144.891 73.2333,142.391 64.5,141C 63.6634,139.989 63.33,138.822 63.5,137.5C 58.3054,136.026 52.9721,135.192 47.5,135C 48.1667,134.667 48.8333,134.333 49.5,134C 46.1228,133.548 42.7895,132.882 39.5,132C 38.944,131.617 38.6107,131.117 38.5,130.5C 38.2322,128.901 38.5655,127.568 39.5,126.5 Z"/></g>
<g><path style="opacity:1" fill="#c2c5ca" d="M 119.5,130.5 C 122.972,134.094 125.972,138.094 128.5,142.5C 127.942,143.79 126.942,144.623 125.5,145C 121.848,145.499 118.182,145.665 114.5,145.5C 112.983,145.489 111.816,144.823 111,143.5C 109.359,139.914 107.859,136.247 106.5,132.5C 111.028,132.23 115.361,131.563 119.5,130.5 Z"/></g>
<g><path style="opacity:1" fill="#2f2d31" d="M 230.5,130.5 C 240.506,130.334 250.506,130.5 260.5,131C 253.167,131.333 245.833,131.667 238.5,132C 245.744,132.195 252.911,133.029 260,134.5C 261.981,134.371 263.647,133.704 265,132.5C 265.333,133.5 265.667,134.5 266,135.5C 267,134.167 268,134.167 269,135.5C 269.278,134.584 269.778,133.918 270.5,133.5C 270.5,144.833 270.5,156.167 270.5,167.5C 267.854,167.892 265.354,167.892 263,167.5C 260.649,168.714 258.149,169.548 255.5,170C 250.177,170.499 244.844,170.666 239.5,170.5C 244.449,168.842 249.449,167.009 254.5,165C 255.059,164.275 255.392,163.442 255.5,162.5C 254.307,159.281 252.974,156.114 251.5,153C 253.501,150.341 253.834,147.507 252.5,144.5C 251.702,146.078 251.202,147.744 251,149.5C 250.163,147.649 249.329,145.816 248.5,144C 245.518,143.502 242.518,143.335 239.5,143.5C 239.67,142.178 239.337,141.011 238.5,140C 233.171,139.882 228.005,139.049 223,137.5C 222.735,135.837 223.235,134.337 224.5,133C 224.167,132.667 223.833,132.333 223.5,132C 226.036,131.814 228.369,131.314 230.5,130.5 Z"/></g>
<g><path style="opacity:1" fill="#6b7a8a" d="M 138.5,129.5 C 139.687,131.975 141.687,132.975 144.5,132.5C 144.393,134.903 145.393,136.736 147.5,138C 151.167,138.667 154.833,138.667 158.5,138C 159.252,137.329 159.586,136.496 159.5,135.5C 162.506,137.839 165.173,140.506 167.5,143.5C 167.182,144.647 166.516,145.481 165.5,146C 172.92,147.547 178.92,151.38 183.5,157.5C 182.975,158.192 182.308,158.692 181.5,159C 175.086,159.207 168.753,159.707 162.5,160.5C 162.649,159.448 162.483,158.448 162,157.5C 160.08,155.526 158.247,153.526 156.5,151.5C 155.599,149.273 153.933,148.273 151.5,148.5C 151.741,145.966 150.741,144.3 148.5,143.5C 147.7,141.427 146.367,139.76 144.5,138.5C 142.461,135.528 139.961,132.862 137,130.5C 136.395,128.365 136.895,128.031 138.5,129.5 Z"/></g>
<g><path style="opacity:1" fill="#c4c7ca" d="M 102.5,132.5 C 103.458,132.953 104.292,133.619 105,134.5C 106.235,139.552 108.235,144.219 111,148.5C 111.494,150.134 111.66,151.801 111.5,153.5C 107.865,154.114 104.198,154.448 100.5,154.5C 100.047,153.542 99.3805,152.708 98.5,152C 99.0814,151.107 99.4148,150.107 99.5,149C 98.3818,146.941 97.7151,144.774 97.5,142.5C 100.364,142.936 102.697,142.103 104.5,140C 101.443,139.744 98.443,139.244 95.5,138.5C 94.7255,136.604 93.7255,134.937 92.5,133.5C 96.0419,133.813 99.3752,133.479 102.5,132.5 Z"/></g>
<g><path style="opacity:1" fill="#47312b" d="M -0.5,127.5 C 0.95875,127.433 2.29208,127.766 3.5,128.5C 3.5,128.833 3.5,129.167 3.5,129.5C 3.3347,133.182 3.50137,136.848 4,140.5C 4.24917,141.624 4.74917,142.624 5.5,143.5C 7.65956,143.811 9.99289,144.478 12.5,145.5C 14.5351,144.796 16.5351,144.129 18.5,143.5C 18.5,142.5 18.5,141.5 18.5,140.5C 20.8367,138.334 23.3367,136.334 26,134.5C 27.0086,132.975 27.5086,131.308 27.5,129.5C 27.8333,129.5 28.1667,129.5 28.5,129.5C 28.628,131.655 28.128,133.655 27,135.5C 24.0416,139.916 21.2083,144.416 18.5,149C 11.8765,153.768 5.54317,155.268 -0.5,153.5C -0.5,144.833 -0.5,136.167 -0.5,127.5 Z"/></g>
<g><path style="opacity:1" fill="#664335" d="M 3.5,129.5 C 5.83333,129.5 8.16667,129.5 10.5,129.5C 7.7284,137.067 10.3951,140.733 18.5,140.5C 18.5,141.5 18.5,142.5 18.5,143.5C 16.5351,144.129 14.5351,144.796 12.5,145.5C 9.99289,144.478 7.65956,143.811 5.5,143.5C 4.74917,142.624 4.24917,141.624 4,140.5C 3.50137,136.848 3.3347,133.182 3.5,129.5 Z"/></g>
<g><path style="opacity:1" fill="#854d31" d="M 10.5,129.5 C 12.1667,129.5 13.8333,129.5 15.5,129.5C 15.3796,131.199 15.0463,132.865 14.5,134.5C 14.4342,136.266 15.2676,137.266 17,137.5C 22.2013,137.177 25.0346,134.511 25.5,129.5C 26.1667,129.5 26.8333,129.5 27.5,129.5C 27.5086,131.308 27.0086,132.975 26,134.5C 23.3367,136.334 20.8367,138.334 18.5,140.5C 10.3951,140.733 7.7284,137.067 10.5,129.5 Z"/></g>
<g><path style="opacity:1" fill="#3c3d47" d="M 34.5,137.5 C 34.5,139.5 34.5,141.5 34.5,143.5C 39.3633,143.181 44.03,143.514 48.5,144.5C 47.9079,150.235 46.9079,155.902 45.5,161.5C 44.6747,157.878 44.1747,154.211 44,150.5C 43.5,150 43,149.5 42.5,149C 38.4199,149.549 34.2532,150.383 30,151.5C 28.1208,149.987 25.9541,149.321 23.5,149.5C 27.9183,148.021 32.585,147.021 37.5,146.5C 30.7966,145.347 29.7966,142.347 34.5,137.5 Z"/></g>
<g><path style="opacity:1" fill="#b7babb" d="M 37.5,130.5 C 37.8333,130.5 38.1667,130.5 38.5,130.5C 38.6107,131.117 38.944,131.617 39.5,132C 42.7895,132.882 46.1228,133.548 49.5,134C 48.8333,134.333 48.1667,134.667 47.5,135C 52.9721,135.192 58.3054,136.026 63.5,137.5C 63.33,138.822 63.6634,139.989 64.5,141C 73.2333,142.391 81.4,144.891 89,148.5C 90.8793,146.473 92.046,144.14 92.5,141.5C 93.2216,141.918 93.7216,142.584 94,143.5C 94.8303,148.808 95.3303,154.141 95.5,159.5C 90.1667,159.5 84.8333,159.5 79.5,159.5C 79.6495,160.552 79.4828,161.552 79,162.5C 77.2,160.117 74.8666,158.45 72,157.5C 71.5172,156.552 71.3505,155.552 71.5,154.5C 68.6851,153.874 66.1851,152.54 64,150.5C 63.6667,150.833 63.3333,151.167 63,151.5C 61.482,149.652 59.6487,148.152 57.5,147C 55.8876,146.28 54.3876,146.446 53,147.5C 52.3162,146.216 52.4829,145.049 53.5,144C 52.4366,142.812 51.1033,142.312 49.5,142.5C 45.03,141.514 40.3633,141.181 35.5,141.5C 36.4633,137.899 37.13,134.233 37.5,130.5 Z"/></g>
<g><path style="opacity:1" fill="#3c3e47" d="M 223.5,169.5 C 223.5,168.5 223.5,167.5 223.5,166.5C 221.801,166.66 220.134,166.494 218.5,166C 219.833,165.333 219.833,164.667 218.5,164C 211.885,162.892 205.218,162.225 198.5,162C 197.167,161 197.167,160 198.5,159C 200.433,158.749 202.266,158.249 204,157.5C 204.507,156.004 204.007,154.837 202.5,154C 203.025,153.308 203.692,152.808 204.5,152.5C 207.052,154.87 210.052,156.203 213.5,156.5C 213.553,153.939 212.553,151.939 210.5,150.5C 208.043,150.551 205.543,150.884 203,151.5C 201.365,151.122 199.865,150.456 198.5,149.5C 199.348,147.591 199.682,145.591 199.5,143.5C 203.425,143.888 207.092,143.221 210.5,141.5C 217.872,143.021 224.705,144.021 231,144.5C 231.667,143.833 232.333,143.167 233,142.5C 234.137,143.364 235.47,144.364 237,145.5C 238.234,148.42 239.234,151.42 240,154.5C 242.67,155.224 244.17,156.891 244.5,159.5C 245.5,159.5 246.5,159.5 247.5,159.5C 247.5,161.5 247.5,163.5 247.5,165.5C 239.838,168.41 231.838,169.743 223.5,169.5 Z"/></g>
<g><path style="opacity:1" fill="#a9b3bb" d="M 128.5,142.5 C 131.885,146.402 134.719,150.736 137,155.5C 140.136,157.164 141.303,159.831 140.5,163.5C 138.901,163.232 137.568,163.566 136.5,164.5C 131.438,164.726 126.438,164.392 121.5,163.5C 120.859,162.518 120.193,161.518 119.5,160.5C 120.959,157.249 119.959,154.915 116.5,153.5C 115.74,150.813 115.073,148.147 114.5,145.5C 118.182,145.665 121.848,145.499 125.5,145C 126.942,144.623 127.942,143.79 128.5,142.5 Z"/></g>
<g><path style="opacity:1" fill="#2e2729" d="M 28.5,129.5 C 31.7131,129.19 34.7131,129.523 37.5,130.5C 35.7073,132.426 34.7073,134.759 34.5,137.5C 29.7966,142.347 30.7966,145.347 37.5,146.5C 32.585,147.021 27.9183,148.021 23.5,149.5C 20.2727,154.49 17.606,159.824 15.5,165.5C 18.098,169.79 19.7647,174.456 20.5,179.5C 13.5,179.5 6.5,179.5 -0.5,179.5C -0.5,170.833 -0.5,162.167 -0.5,153.5C 5.54317,155.268 11.8765,153.768 18.5,149C 21.2083,144.416 24.0416,139.916 27,135.5C 28.128,133.655 28.628,131.655 28.5,129.5 Z"/></g>
<g><path style="opacity:1" fill="#8d9ead" d="M 148.5,143.5 C 150.741,144.3 151.741,145.966 151.5,148.5C 153.933,148.273 155.599,149.273 156.5,151.5C 157.077,154.55 155.91,156.55 153,157.5C 152.517,158.448 152.351,159.448 152.5,160.5C 148.461,161.34 145.461,160.007 143.5,156.5C 142.311,155.571 140.978,155.238 139.5,155.5C 139.799,153.396 139.466,151.396 138.5,149.5C 136.312,148.556 134.979,146.889 134.5,144.5C 139.18,144.173 143.847,143.84 148.5,143.5 Z"/></g>
<g><path style="opacity:1" fill="#5c6470" d="M 48.5,144.5 C 49.6533,150.653 49.82,156.986 49,163.5C 46.9592,164.423 44.7925,164.756 42.5,164.5C 42.6657,160.154 42.499,155.821 42,151.5C 40.9887,150.663 39.8221,150.33 38.5,150.5C 34.8352,153.505 33.0018,157.505 33,162.5C 30.4727,163.726 28.306,165.392 26.5,167.5C 25.5062,171.452 24.8396,175.452 24.5,179.5C 23.1667,179.5 21.8333,179.5 20.5,179.5C 19.7647,174.456 18.098,169.79 15.5,165.5C 17.606,159.824 20.2727,154.49 23.5,149.5C 25.9541,149.321 28.1208,149.987 30,151.5C 34.2532,150.383 38.4199,149.549 42.5,149C 43,149.5 43.5,150 44,150.5C 44.1747,154.211 44.6747,157.878 45.5,161.5C 46.9079,155.902 47.9079,150.235 48.5,144.5 Z"/></g>
<g><path style="opacity:1" fill="#9aa1a8" d="M 37.5,130.5 C 37.13,134.233 36.4633,137.899 35.5,141.5C 40.3633,141.181 45.03,141.514 49.5,142.5C 51.2681,145.162 51.9347,148.162 51.5,151.5C 58.1872,150.031 62.6872,152.364 65,158.5C 65.6543,157.304 66.1543,157.304 66.5,158.5C 65.675,159.386 64.675,159.719 63.5,159.5C 64.1563,163.162 64.823,166.828 65.5,170.5C 64.9544,173.566 64.2877,176.566 63.5,179.5C 56.5,179.5 49.5,179.5 42.5,179.5C 42.9234,178.735 43.2568,177.902 43.5,177C 42.3135,173.688 40.9802,170.521 39.5,167.5C 38.1779,167.67 37.0113,167.337 36,166.5C 34.8343,160.758 35.6676,155.425 38.5,150.5C 39.8221,150.33 40.9887,150.663 42,151.5C 42.499,155.821 42.6657,160.154 42.5,164.5C 44.7925,164.756 46.9592,164.423 49,163.5C 49.82,156.986 49.6533,150.653 48.5,144.5C 44.03,143.514 39.3633,143.181 34.5,143.5C 34.5,141.5 34.5,139.5 34.5,137.5C 34.7073,134.759 35.7073,132.426 37.5,130.5 Z"/></g>
<g><path style="opacity:1" fill="#7c8692" d="M 38.5,150.5 C 35.6676,155.425 34.8343,160.758 36,166.5C 37.0113,167.337 38.1779,167.67 39.5,167.5C 40.9802,170.521 42.3135,173.688 43.5,177C 43.2568,177.902 42.9234,178.735 42.5,179.5C 36.5,179.5 30.5,179.5 24.5,179.5C 24.8396,175.452 25.5062,171.452 26.5,167.5C 28.306,165.392 30.4727,163.726 33,162.5C 33.0018,157.505 34.8352,153.505 38.5,150.5 Z"/></g>
<g><path style="opacity:1" fill="#abb0b2" d="M 89.5,127.5 C 92.8004,128.093 96.1337,128.76 99.5,129.5C 96.8333,130.167 94.1667,130.833 91.5,131.5C 91.8627,132.183 92.1961,132.85 92.5,133.5C 93.7255,134.937 94.7255,136.604 95.5,138.5C 98.443,139.244 101.443,139.744 104.5,140C 102.697,142.103 100.364,142.936 97.5,142.5C 97.7151,144.774 98.3818,146.941 99.5,149C 99.4148,150.107 99.0814,151.107 98.5,152C 99.3805,152.708 100.047,153.542 100.5,154.5C 99.5,154.5 98.5,154.5 97.5,154.5C 95.717,162.263 98.0503,168.263 104.5,172.5C 109.642,173.754 114.808,173.754 120,172.5C 122.325,173.965 124.658,174.632 127,174.5C 127.167,174.833 127.333,175.167 127.5,175.5C 124.452,176.463 121.786,177.796 119.5,179.5C 100.833,179.5 82.1667,179.5 63.5,179.5C 64.2877,176.566 64.9544,173.566 65.5,170.5C 64.823,166.828 64.1563,163.162 63.5,159.5C 64.675,159.719 65.675,159.386 66.5,158.5C 66.1543,157.304 65.6543,157.304 65,158.5C 62.6872,152.364 58.1872,150.031 51.5,151.5C 51.9347,148.162 51.2681,145.162 49.5,142.5C 51.1033,142.312 52.4366,142.812 53.5,144C 52.4829,145.049 52.3162,146.216 53,147.5C 54.3876,146.446 55.8876,146.28 57.5,147C 59.6487,148.152 61.482,149.652 63,151.5C 63.3333,151.167 63.6667,150.833 64,150.5C 66.1851,152.54 68.6851,153.874 71.5,154.5C 71.3505,155.552 71.5172,156.552 72,157.5C 74.8666,158.45 77.2,160.117 79,162.5C 79.4828,161.552 79.6495,160.552 79.5,159.5C 84.8333,159.5 90.1667,159.5 95.5,159.5C 95.3303,154.141 94.8303,148.808 94,143.5C 93.7216,142.584 93.2216,141.918 92.5,141.5C 91.688,137.552 90.688,133.552 89.5,129.5C 89.5,128.833 89.5,128.167 89.5,127.5 Z"/></g>
<g><path style="opacity:1" fill="#7c8894" d="M 119.5,130.5 C 119.5,130.167 119.5,129.833 119.5,129.5C 124.511,129.334 129.511,129.501 134.5,130C 130.789,130.175 127.122,130.675 123.5,131.5C 126.797,139.664 132.631,142.664 141,140.5C 142.681,140.392 143.848,139.725 144.5,138.5C 146.367,139.76 147.7,141.427 148.5,143.5C 143.847,143.84 139.18,144.173 134.5,144.5C 134.979,146.889 136.312,148.556 138.5,149.5C 139.466,151.396 139.799,153.396 139.5,155.5C 140.978,155.238 142.311,155.571 143.5,156.5C 145.461,160.007 148.461,161.34 152.5,160.5C 152.351,159.448 152.517,158.448 153,157.5C 155.91,156.55 157.077,154.55 156.5,151.5C 158.247,153.526 160.08,155.526 162,157.5C 162.483,158.448 162.649,159.448 162.5,160.5C 156.413,162.198 150.247,162.531 144,161.5C 142.013,163.628 139.513,164.628 136.5,164.5C 137.568,163.566 138.901,163.232 140.5,163.5C 141.303,159.831 140.136,157.164 137,155.5C 134.719,150.736 131.885,146.402 128.5,142.5C 125.972,138.094 122.972,134.094 119.5,130.5 Z"/></g>
<g><path style="opacity:1" fill="#3b383e" d="M 154.5,129.5 C 174.833,129.5 195.167,129.5 215.5,129.5C 220.305,130.487 225.305,130.821 230.5,130.5C 228.369,131.314 226.036,131.814 223.5,132C 223.833,132.333 224.167,132.667 224.5,133C 223.235,134.337 222.735,135.837 223,137.5C 228.005,139.049 233.171,139.882 238.5,140C 239.337,141.011 239.67,142.178 239.5,143.5C 242.518,143.335 245.518,143.502 248.5,144C 249.329,145.816 250.163,147.649 251,149.5C 251.202,147.744 251.702,146.078 252.5,144.5C 253.834,147.507 253.501,150.341 251.5,153C 252.974,156.114 254.307,159.281 255.5,162.5C 255.392,163.442 255.059,164.275 254.5,165C 249.449,167.009 244.449,168.842 239.5,170.5C 234.335,171.994 229.001,173.327 223.5,174.5C 207.252,175.259 191.252,176.925 175.5,179.5C 171.5,179.5 167.5,179.5 163.5,179.5C 163.918,178.778 164.584,178.278 165.5,178C 184.884,175.264 204.218,172.43 223.5,169.5C 231.838,169.743 239.838,168.41 247.5,165.5C 247.5,163.5 247.5,161.5 247.5,159.5C 246.5,159.5 245.5,159.5 244.5,159.5C 244.17,156.891 242.67,155.224 240,154.5C 239.234,151.42 238.234,148.42 237,145.5C 235.47,144.364 234.137,143.364 233,142.5C 232.333,143.167 231.667,143.833 231,144.5C 224.705,144.021 217.872,143.021 210.5,141.5C 207.092,143.221 203.425,143.888 199.5,143.5C 196.794,143.425 194.127,143.092 191.5,142.5C 191.67,141.178 191.337,140.011 190.5,139C 187.529,138.529 184.862,137.362 182.5,135.5C 180.568,136.52 178.568,136.687 176.5,136C 171.911,131.219 166.244,129.386 159.5,130.5C 157.451,131.641 155.451,131.641 153.5,130.5C 152.443,129.794 152.776,129.461 154.5,129.5 Z"/></g>
<g><path style="opacity:1" fill="#4c4e5b" d="M 159.5,130.5 C 166.244,129.386 171.911,131.219 176.5,136C 178.568,136.687 180.568,136.52 182.5,135.5C 184.862,137.362 187.529,138.529 190.5,139C 191.337,140.011 191.67,141.178 191.5,142.5C 194.127,143.092 196.794,143.425 199.5,143.5C 199.682,145.591 199.348,147.591 198.5,149.5C 199.865,150.456 201.365,151.122 203,151.5C 205.543,150.884 208.043,150.551 210.5,150.5C 212.553,151.939 213.553,153.939 213.5,156.5C 210.052,156.203 207.052,154.87 204.5,152.5C 203.692,152.808 203.025,153.308 202.5,154C 204.007,154.837 204.507,156.004 204,157.5C 202.266,158.249 200.433,158.749 198.5,159C 197.167,160 197.167,161 198.5,162C 205.218,162.225 211.885,162.892 218.5,164C 219.833,164.667 219.833,165.333 218.5,166C 220.134,166.494 221.801,166.66 223.5,166.5C 223.5,167.5 223.5,168.5 223.5,169.5C 204.218,172.43 184.884,175.264 165.5,178C 164.584,178.278 163.918,178.778 163.5,179.5C 160.5,179.5 157.5,179.5 154.5,179.5C 156.019,178.59 157.685,177.757 159.5,177C 172.861,175.719 186.194,173.886 199.5,171.5C 198.167,170.5 198.167,169.5 199.5,168.5C 198.088,167.194 196.421,166.36 194.5,166C 187.508,165.5 180.508,165.334 173.5,165.5C 173.227,163.549 173.893,162.049 175.5,161C 178.167,160.667 180.833,160.333 183.5,160C 184.645,158.141 186.312,157.307 188.5,157.5C 192.163,158.668 195.83,158.668 199.5,157.5C 199.785,155.712 199.452,154.045 198.5,152.5C 195.314,149.479 191.98,146.646 188.5,144C 183.311,142.46 178.144,142.293 173,143.5C 172.399,142.035 172.899,141.035 174.5,140.5C 176.326,140.92 178.326,140.92 180.5,140.5C 180.5,139.5 180.5,138.5 180.5,137.5C 172.452,138.373 165.452,136.04 159.5,130.5 Z"/></g>
<g><path style="opacity:1" fill="#8f979f" d="M 106.5,132.5 C 107.859,136.247 109.359,139.914 111,143.5C 111.816,144.823 112.983,145.489 114.5,145.5C 115.073,148.147 115.74,150.813 116.5,153.5C 119.959,154.915 120.959,157.249 119.5,160.5C 120.193,161.518 120.859,162.518 121.5,163.5C 120.167,163.5 118.833,163.5 117.5,163.5C 117.238,164.978 117.571,166.311 118.5,167.5C 120.664,167.998 122.331,169.164 123.5,171C 130.833,171.333 138.167,171.667 145.5,172C 147.931,173.092 147.931,174.259 145.5,175.5C 141.893,176.413 138.56,177.747 135.5,179.5C 130.167,179.5 124.833,179.5 119.5,179.5C 121.786,177.796 124.452,176.463 127.5,175.5C 127.333,175.167 127.167,174.833 127,174.5C 124.658,174.632 122.325,173.965 120,172.5C 114.808,173.754 109.642,173.754 104.5,172.5C 98.0503,168.263 95.717,162.263 97.5,154.5C 98.5,154.5 99.5,154.5 100.5,154.5C 104.198,154.448 107.865,154.114 111.5,153.5C 111.66,151.801 111.494,150.134 111,148.5C 108.235,144.219 106.235,139.552 105,134.5C 104.292,133.619 103.458,132.953 102.5,132.5C 102.193,130.554 102.193,128.887 102.5,127.5C 103.612,129.419 104.946,131.086 106.5,132.5 Z"/></g>
<g><path style="opacity:1" fill="#b3c0c8" d="M 111.5,158.5 C 115.068,158.759 116.401,160.759 115.5,164.5C 112.482,164.665 109.482,164.498 106.5,164C 104.893,162.951 104.227,161.451 104.5,159.5C 107.059,159.802 109.393,159.468 111.5,158.5 Z"/></g>
<g><path style="opacity:1" fill="#76808c" d="M 121.5,163.5 C 126.438,164.392 131.438,164.726 136.5,164.5C 132.124,166.138 127.458,166.971 122.5,167C 123.167,167.667 123.833,168.333 124.5,169C 129.833,169.667 135.167,169.667 140.5,169C 141.912,167.694 143.579,166.86 145.5,166.5C 153.582,169.111 161.749,169.111 170,166.5C 174.477,167.18 178.977,167.68 183.5,168C 185.037,169.11 185.703,170.61 185.5,172.5C 172.276,174.814 158.942,175.814 145.5,175.5C 147.931,174.259 147.931,173.092 145.5,172C 138.167,171.667 130.833,171.333 123.5,171C 122.331,169.164 120.664,167.998 118.5,167.5C 117.571,166.311 117.238,164.978 117.5,163.5C 118.833,163.5 120.167,163.5 121.5,163.5 Z"/></g>
<g><path style="opacity:1" fill="#5f6571" d="M 153.5,130.5 C 155.451,131.641 157.451,131.641 159.5,130.5C 165.452,136.04 172.452,138.373 180.5,137.5C 180.5,138.5 180.5,139.5 180.5,140.5C 178.326,140.92 176.326,140.92 174.5,140.5C 172.899,141.035 172.399,142.035 173,143.5C 178.144,142.293 183.311,142.46 188.5,144C 191.98,146.646 195.314,149.479 198.5,152.5C 199.452,154.045 199.785,155.712 199.5,157.5C 195.83,158.668 192.163,158.668 188.5,157.5C 186.312,157.307 184.645,158.141 183.5,160C 180.833,160.333 178.167,160.667 175.5,161C 173.893,162.049 173.227,163.549 173.5,165.5C 180.508,165.334 187.508,165.5 194.5,166C 196.421,166.36 198.088,167.194 199.5,168.5C 198.167,169.5 198.167,170.5 199.5,171.5C 186.194,173.886 172.861,175.719 159.5,177C 157.685,177.757 156.019,178.59 154.5,179.5C 148.167,179.5 141.833,179.5 135.5,179.5C 138.56,177.747 141.893,176.413 145.5,175.5C 158.942,175.814 172.276,174.814 185.5,172.5C 185.703,170.61 185.037,169.11 183.5,168C 178.977,167.68 174.477,167.18 170,166.5C 161.749,169.111 153.582,169.111 145.5,166.5C 143.579,166.86 141.912,167.694 140.5,169C 135.167,169.667 129.833,169.667 124.5,169C 123.833,168.333 123.167,167.667 122.5,167C 127.458,166.971 132.124,166.138 136.5,164.5C 139.513,164.628 142.013,163.628 144,161.5C 150.247,162.531 156.413,162.198 162.5,160.5C 168.753,159.707 175.086,159.207 181.5,159C 182.308,158.692 182.975,158.192 183.5,157.5C 178.92,151.38 172.92,147.547 165.5,146C 166.516,145.481 167.182,144.647 167.5,143.5C 165.173,140.506 162.506,137.839 159.5,135.5C 155.251,134.457 150.918,133.624 146.5,133C 149.361,133.03 151.695,132.197 153.5,130.5 Z"/></g>
<g><path style="opacity:1" fill="#262425" d="M 270.5,167.5 C 270.5,171.5 270.5,175.5 270.5,179.5C 238.833,179.5 207.167,179.5 175.5,179.5C 191.252,176.925 207.252,175.259 223.5,174.5C 229.001,173.327 234.335,171.994 239.5,170.5C 244.844,170.666 250.177,170.499 255.5,170C 258.149,169.548 260.649,168.714 263,167.5C 265.354,167.892 267.854,167.892 270.5,167.5 Z"/></g>
</svg>
